<svg width="25" height="25" viewBox="0 0 25 25" fill="none" xmlns="http://www.w3.org/2000/svg">
<path fill-rule="evenodd" clip-rule="evenodd" d="M4.68091 3.9707C3.85248 3.9707 3.18091 4.64227 3.18091 5.4707V20.4707C3.18091 21.2991 3.85248 21.9707 4.68091 21.9707H19.6809C20.5093 21.9707 21.1809 21.2991 21.1809 20.4707V5.4707C21.1809 4.64227 20.5093 3.9707 19.6809 3.9707H4.68091ZM8.70167 7.97342C8.7073 8.92967 7.99152 9.51889 7.14214 9.51467C6.34198 9.51045 5.64448 8.87342 5.6487 7.97483C5.65292 7.12967 6.32089 6.45045 7.18855 6.47014C8.06886 6.48983 8.7073 7.1353 8.70167 7.97342ZM12.4606 10.7325H9.94062H9.93921V19.2923H12.6026V19.0926C12.6026 18.7127 12.6023 18.3327 12.602 17.9526C12.6012 16.9388 12.6003 15.9239 12.6055 14.9104C12.6069 14.6643 12.6181 14.4084 12.6814 14.1735C12.919 13.296 13.708 12.7293 14.5883 12.8686C15.1536 12.9571 15.5276 13.2848 15.6851 13.8178C15.7822 14.151 15.8258 14.5096 15.83 14.857C15.8414 15.9046 15.8398 16.9522 15.8382 17.9999C15.8376 18.3697 15.837 18.7397 15.837 19.1095V19.2909H18.5089V19.0856C18.5089 18.6336 18.5087 18.1817 18.5084 17.7298C18.5079 16.6003 18.5073 15.4708 18.5103 14.3409C18.5117 13.8304 18.4569 13.327 18.3317 12.8334C18.1447 12.0993 17.758 11.4918 17.1294 11.0531C16.6836 10.7409 16.1942 10.5398 15.6472 10.5173C15.5849 10.5147 15.5221 10.5113 15.459 10.5079C15.1793 10.4928 14.895 10.4774 14.6276 10.5314C13.8626 10.6846 13.1905 11.0348 12.6828 11.6521C12.6238 11.7229 12.5661 11.7948 12.48 11.9021L12.4606 11.9264V10.7325ZM5.86255 19.2951H8.51333V10.738H5.86255V19.2951Z" fill="#F2F2F2"/>
</svg>
