<svg width="25" height="25" viewBox="0 0 25 25" fill="none" xmlns="http://www.w3.org/2000/svg">
<path d="M19.5776 7.52588C19.6769 7.52591 19.753 7.55636 19.8315 7.63525C19.9101 7.7143 19.9409 7.79167 19.9409 7.89307C19.9409 7.99423 19.9106 8.07241 19.8325 8.15186L10.2144 17.7632C10.1322 17.8447 10.0562 17.8735 9.96338 17.8735C9.87074 17.8735 9.79563 17.8453 9.71533 17.7651L5.18018 13.23C5.1032 13.1518 5.07513 13.0773 5.07764 12.98C5.08047 12.874 5.11521 12.7916 5.19678 12.7104C5.27584 12.6318 5.35318 12.6011 5.45459 12.6011C5.53101 12.6011 5.59419 12.6185 5.65479 12.6606L5.71533 12.7114L9.60986 16.6245L9.96338 16.98L10.3179 16.6255L19.3101 7.63916C19.3951 7.55655 19.4769 7.52588 19.5776 7.52588Z" fill="black" stroke="black"/>
</svg>
