<svg width="25" height="25" viewBox="0 0 25 25" fill="none" xmlns="http://www.w3.org/2000/svg">
<path d="M9.56799 7.40088C9.66882 7.40088 9.74579 7.43129 9.82385 7.50928L14.7682 12.4536C14.8221 12.5075 14.8473 12.5495 14.859 12.5776V12.5786C14.8738 12.6142 14.8824 12.6539 14.8824 12.7026C14.8824 12.7513 14.8738 12.7911 14.859 12.8267V12.8276C14.8473 12.8558 14.8221 12.8977 14.7682 12.9517L9.79944 17.9204C9.72167 17.9982 9.65453 18.02 9.57385 18.0171C9.47982 18.0136 9.39896 17.9817 9.31311 17.896C9.23499 17.8179 9.20374 17.741 9.20374 17.6401C9.20374 17.5392 9.23499 17.4624 9.31311 17.3843L13.9948 12.7026L9.28772 7.99561C9.21005 7.91791 9.18811 7.8516 9.19104 7.771C9.19449 7.67673 9.22706 7.59533 9.31311 7.50928C9.39104 7.43147 9.4674 7.40096 9.56799 7.40088Z" fill="black" stroke="black"/>
</svg>
