<svg width="95" height="41" viewBox="0 0 95 41" fill="none" xmlns="http://www.w3.org/2000/svg">
<g clip-path="url(#clip0_11_396)">
<path d="M40.6412 22.1031C40.6412 26.5391 37.177 29.8079 32.9256 29.8079C28.6743 29.8079 25.2101 26.5391 25.2101 22.1031C25.2101 17.6358 28.6743 14.3982 32.9256 14.3982C37.177 14.3982 40.6412 17.6358 40.6412 22.1031ZM37.2637 22.1031C37.2637 19.331 35.2559 17.4343 32.9256 17.4343C30.5954 17.4343 28.5876 19.331 28.5876 22.1031C28.5876 24.8474 30.5954 26.7718 32.9256 26.7718C35.2559 26.7718 37.2637 24.8439 37.2637 22.1031Z" fill="#868686"/>
<path d="M57.286 22.1031C57.286 26.5391 53.8218 29.8079 49.5705 29.8079C45.3192 29.8079 41.855 26.5391 41.855 22.1031C41.855 17.6392 45.3192 14.3982 49.5705 14.3982C53.8218 14.3982 57.286 17.6358 57.286 22.1031ZM53.9085 22.1031C53.9085 19.331 51.9007 17.4343 49.5705 17.4343C47.2402 17.4343 45.2325 19.331 45.2325 22.1031C45.2325 24.8474 47.2402 26.7718 49.5705 26.7718C51.9007 26.7718 53.9085 24.8439 53.9085 22.1031Z" fill="#868686"/>
<path d="M73.2373 14.8637V28.6963C73.2373 34.3864 69.8876 36.7103 65.9275 36.7103C62.1998 36.7103 59.9563 34.2127 59.1102 32.1701L62.0507 30.9439C62.5743 32.1979 63.8574 33.6777 65.9241 33.6777C68.4589 33.6777 70.0298 32.111 70.0298 29.1618V28.0537H69.9119C69.1559 28.9881 67.6995 29.8045 65.8617 29.8045C62.016 29.8045 58.4929 26.4488 58.4929 22.1308C58.4929 17.7817 62.016 14.3982 65.8617 14.3982C67.696 14.3982 69.1525 15.2145 69.9119 16.1212H70.0298V14.8672H73.2373V14.8637ZM70.269 22.1308C70.269 19.4178 68.4624 17.4343 66.1633 17.4343C63.8331 17.4343 61.8808 19.4178 61.8808 22.1308C61.8808 24.8161 63.8331 26.7718 66.1633 26.7718C68.4624 26.7718 70.269 24.8161 70.269 22.1308Z" fill="#868686"/>
<path d="M78.5251 6.75586V29.3355H75.2308V6.75586H78.5251Z" fill="#868686"/>
<path d="M91.3627 24.639L93.9842 26.3898C93.1381 27.6438 91.0992 29.8045 87.5761 29.8045C83.2068 29.8045 79.9438 26.421 79.9438 22.0996C79.9438 17.5177 83.2346 14.3948 87.1981 14.3948C91.1893 14.3948 93.1416 17.5768 93.7797 19.2963L94.1299 20.1717L83.8484 24.4375C84.6355 25.9833 85.8596 26.7719 87.5761 26.7719C89.296 26.7719 90.4889 25.9243 91.3627 24.639ZM83.2935 21.8669L90.1664 19.008C89.7884 18.0457 88.651 17.3753 87.3125 17.3753C85.596 17.3753 83.2068 18.8933 83.2935 21.8669V21.8669Z" fill="#868686"/>
<path d="M12.7405 20.0984V16.8296H23.7364C23.8438 17.3993 23.8993 18.0732 23.8993 18.8027C23.8993 21.2552 23.2301 24.2878 21.0732 26.4485C18.9753 28.637 16.2948 29.8042 12.7439 29.8042C6.16235 29.8042 0.627991 24.4337 0.627991 17.8404C0.627991 11.2472 6.16235 5.87671 12.7439 5.87671C16.385 5.87671 18.9787 7.30791 20.9276 9.17334L18.625 11.4799C17.2276 10.1668 15.3343 9.14555 12.7405 9.14555C7.93431 9.14555 4.17539 13.0258 4.17539 17.8404C4.17539 22.6551 7.93431 26.5353 12.7405 26.5353C15.8579 26.5353 17.6333 25.2813 18.7707 24.1419C19.6931 23.2179 20.2999 21.8978 20.5392 20.0949L12.7405 20.0984V20.0984Z" fill="#868686"/>
</g>
<defs>
<clipPath id="clip0_11_396">
<rect width="94" height="40" fill="white" transform="translate(0.514282 0.728027)"/>
</clipPath>
</defs>
</svg>
