<svg width="25" height="25" viewBox="0 0 25 25" fill="none" xmlns="http://www.w3.org/2000/svg">
<path fill-rule="evenodd" clip-rule="evenodd" d="M16.1809 3.9707H8.18091C5.41949 3.9707 3.18091 6.20928 3.18091 8.9707V16.9707C3.18091 19.7321 5.41949 21.9707 8.18091 21.9707H16.1809C18.9423 21.9707 21.1809 19.7321 21.1809 16.9707V8.9707C21.1809 6.20928 18.9423 3.9707 16.1809 3.9707ZM19.4309 16.9707C19.4254 18.7633 17.9735 20.2152 16.1809 20.2207H8.18091C6.38826 20.2152 4.9364 18.7633 4.93091 16.9707V8.9707C4.9364 7.17805 6.38826 5.72619 8.18091 5.7207H16.1809C17.9735 5.72619 19.4254 7.17805 19.4309 8.9707V16.9707ZM16.9309 9.2207C17.4832 9.2207 17.9309 8.77298 17.9309 8.2207C17.9309 7.66842 17.4832 7.2207 16.9309 7.2207C16.3786 7.2207 15.9309 7.66842 15.9309 8.2207C15.9309 8.77298 16.3786 9.2207 16.9309 9.2207ZM12.1809 8.4707C9.69563 8.4707 7.68091 10.4854 7.68091 12.9707C7.68091 15.456 9.69563 17.4707 12.1809 17.4707C14.6662 17.4707 16.6809 15.456 16.6809 12.9707C16.6836 11.7764 16.2103 10.6303 15.3658 9.78578C14.5213 8.94129 13.3752 8.46804 12.1809 8.4707ZM9.43091 12.9707C9.43091 14.4895 10.6621 15.7207 12.1809 15.7207C13.6997 15.7207 14.9309 14.4895 14.9309 12.9707C14.9309 11.4519 13.6997 10.2207 12.1809 10.2207C10.6621 10.2207 9.43091 11.4519 9.43091 12.9707Z" fill="#F2F2F2"/>
</svg>
