<svg width="85" height="21" viewBox="0 0 85 21" fill="none" xmlns="http://www.w3.org/2000/svg">
<path d="M17.1064 3.12803C17.5197 3.20803 17.8264 3.34803 18.0264 3.54803C18.2397 3.74803 18.3464 3.98136 18.3464 4.24803C18.3464 4.68803 18.2197 5.00803 17.9664 5.20803C17.7264 5.40803 17.3397 5.48803 16.8064 5.44803C15.6064 5.35469 14.6664 5.29469 13.9864 5.26803C13.3197 5.22803 12.4397 5.20136 11.3464 5.18803C10.853 7.64136 10.3997 10.108 9.98638 12.588C9.83971 13.4947 9.68638 14.548 9.52638 15.748C9.36638 16.9347 9.25971 17.8947 9.20638 18.628C9.17971 19.0147 9.01971 19.3147 8.72638 19.528C8.43304 19.728 8.07971 19.828 7.66638 19.828C7.22638 19.828 6.88638 19.7214 6.64638 19.508C6.40638 19.2947 6.28638 19.0147 6.28638 18.668C6.28638 18.348 6.33304 17.8214 6.42638 17.088C6.53304 16.3414 6.65304 15.5614 6.78638 14.748C6.93304 13.9347 7.04638 13.228 7.12638 12.628C7.27304 11.6147 7.43971 10.608 7.62638 9.60803C7.81304 8.60803 7.99971 7.66136 8.18638 6.76803C8.22638 6.56803 8.27304 6.34136 8.32638 6.08803C8.37971 5.82136 8.43971 5.52803 8.50638 5.20803C7.19971 5.24803 6.17304 5.35469 5.42638 5.52803C4.67971 5.70136 4.14638 5.94803 3.82638 6.26803C3.51971 6.57469 3.36638 6.97469 3.36638 7.46803C3.36638 7.92136 3.49971 8.35469 3.76638 8.76803C3.81971 8.86136 3.84638 8.96136 3.84638 9.06803C3.84638 9.32136 3.69304 9.56136 3.38638 9.78803C3.09304 10.0014 2.78638 10.108 2.46638 10.108C2.23971 10.108 2.05304 10.0414 1.90638 9.90803C1.63971 9.68136 1.41971 9.36136 1.24638 8.94803C1.07304 8.52136 0.986377 8.04136 0.986377 7.50803C0.986377 6.37469 1.35304 5.46803 2.08638 4.78803C2.83304 4.09469 3.95971 3.58803 5.46638 3.26803C6.98638 2.94803 8.93304 2.78803 11.3064 2.78803C12.773 2.78803 13.9397 2.81469 14.8064 2.86803C15.6864 2.92136 16.453 3.00803 17.1064 3.12803ZM15.7572 19.828C14.9305 19.828 14.2705 19.528 13.7772 18.928C13.2838 18.328 13.0372 17.5414 13.0372 16.568C13.0372 15.5014 13.2838 14.4947 13.7772 13.548C14.2705 12.588 14.9238 11.8214 15.7372 11.248C16.5638 10.6614 17.4372 10.368 18.3572 10.368C18.6505 10.368 18.8438 10.428 18.9372 10.548C19.0438 10.6547 19.1305 10.8547 19.1972 11.148C19.4772 11.0947 19.7705 11.068 20.0772 11.068C20.7305 11.068 21.0572 11.3014 21.0572 11.768C21.0572 12.048 20.9572 12.7147 20.7572 13.768C20.4505 15.3014 20.2972 16.368 20.2972 16.968C20.2972 17.168 20.3438 17.328 20.4372 17.448C20.5438 17.568 20.6772 17.628 20.8372 17.628C21.0905 17.628 21.3972 17.468 21.7572 17.148C22.1172 16.8147 22.6038 16.2814 23.2172 15.548C23.3772 15.3614 23.5572 15.268 23.7572 15.268C23.9305 15.268 24.0638 15.348 24.1572 15.508C24.2638 15.668 24.3172 15.888 24.3172 16.168C24.3172 16.7014 24.1905 17.1147 23.9372 17.408C23.3905 18.088 22.8105 18.6614 22.1972 19.128C21.5838 19.5947 20.9905 19.828 20.4172 19.828C19.9772 19.828 19.5705 19.6814 19.1972 19.388C18.8372 19.0814 18.5638 18.668 18.3772 18.148C17.6838 19.268 16.8105 19.828 15.7572 19.828ZM16.4772 17.808C16.7705 17.808 17.0505 17.6347 17.3172 17.288C17.5838 16.9414 17.7772 16.4814 17.8972 15.908L18.6372 12.228C18.0772 12.2414 17.5572 12.4547 17.0772 12.868C16.6105 13.268 16.2372 13.8014 15.9572 14.468C15.6772 15.1347 15.5372 15.8414 15.5372 16.588C15.5372 17.0014 15.6172 17.308 15.7772 17.508C15.9505 17.708 16.1838 17.808 16.4772 17.808ZM26.4117 20.268C25.7184 20.268 25.185 20.108 24.8117 19.788C24.4517 19.468 24.2717 19.108 24.2717 18.708C24.2717 18.3614 24.3984 18.0614 24.6517 17.808C24.905 17.5547 25.2784 17.428 25.7717 17.428C25.945 17.428 26.145 17.448 26.3717 17.488C26.6117 17.5147 26.7917 17.5347 26.9117 17.548C26.8984 17.2014 26.8184 16.8747 26.6717 16.568C26.5384 16.2614 26.365 15.968 26.1517 15.688C25.9384 15.3947 25.7384 15.1414 25.5517 14.928C25.1384 15.7147 24.725 16.368 24.3117 16.888C23.9117 17.408 23.4717 17.9014 22.9917 18.368C22.7517 18.608 22.4984 18.728 22.2317 18.728C22.0184 18.728 21.845 18.6547 21.7117 18.508C21.5784 18.348 21.5117 18.1547 21.5117 17.928C21.5117 17.6614 21.605 17.4147 21.7917 17.188L22.0517 16.868C22.785 15.9614 23.3384 15.2147 23.7117 14.628C23.9384 14.2414 24.205 13.728 24.5117 13.088C24.8184 12.4347 25.1184 11.7614 25.4117 11.068C25.665 10.4814 26.1917 10.188 26.9917 10.188C27.365 10.188 27.625 10.2214 27.7717 10.288C27.9184 10.3547 27.9917 10.4614 27.9917 10.608C27.9917 10.688 27.965 10.8147 27.9117 10.988C27.8584 11.1614 27.785 11.3347 27.6917 11.508C27.4517 11.988 27.3317 12.3947 27.3317 12.728C27.3317 12.928 27.3984 13.148 27.5317 13.388C27.6784 13.628 27.8984 13.928 28.1917 14.288C28.6184 14.848 28.9384 15.328 29.1517 15.728C29.3784 16.1147 29.4917 16.5414 29.4917 17.008C29.4917 17.1414 29.4784 17.328 29.4517 17.568C30.105 17.3147 30.8717 16.6414 31.7517 15.548C31.9117 15.3614 32.0917 15.268 32.2917 15.268C32.465 15.268 32.5984 15.348 32.6917 15.508C32.7984 15.668 32.8517 15.888 32.8517 16.168C32.8517 16.6747 32.725 17.088 32.4717 17.408C31.805 18.2347 31.165 18.8014 30.5517 19.108C29.9517 19.4014 29.205 19.5614 28.3117 19.588C27.7784 20.0414 27.145 20.268 26.4117 20.268ZM42.7868 15.268C42.9602 15.268 43.0935 15.348 43.1868 15.508C43.2935 15.668 43.3468 15.888 43.3468 16.168C43.3468 16.7014 43.2202 17.1147 42.9668 17.408C42.3668 18.1414 41.7602 18.728 41.1468 19.168C40.5335 19.608 39.8068 19.828 38.9668 19.828C37.9402 19.828 37.1135 19.5347 36.4868 18.948C35.8602 18.3614 35.5468 17.5814 35.5468 16.608C35.5468 16.088 35.8135 15.7147 36.3468 15.488C36.9335 15.2347 37.3535 14.968 37.6068 14.688C37.8602 14.3947 37.9868 14.0414 37.9868 13.628C37.9868 13.388 37.9335 13.208 37.8268 13.088C37.7335 12.968 37.6135 12.908 37.4668 12.908C37.1068 12.908 36.7068 13.168 36.2668 13.688C35.8402 14.208 35.4402 14.8814 35.0668 15.708C34.6935 16.5214 34.4002 17.3614 34.1868 18.228C34.0402 18.8547 33.8668 19.2814 33.6668 19.508C33.4802 19.7214 33.1802 19.828 32.7668 19.828C32.3535 19.828 32.0468 19.6814 31.8468 19.388C31.6602 19.0814 31.5335 18.6147 31.4668 17.988C31.4002 17.3614 31.3668 16.4414 31.3668 15.228C31.3668 13.1747 31.5735 11.0347 31.9868 8.80803C32.4135 6.58136 33.0335 4.71469 33.8468 3.20803C34.6735 1.68803 35.6602 0.928026 36.8068 0.928026C37.4202 0.928026 37.9135 1.19469 38.2868 1.72803C38.6735 2.24803 38.8668 2.92803 38.8668 3.76803C38.8668 5.11469 38.4735 6.51469 37.6868 7.96803C36.9002 9.40803 35.6202 11.0947 33.8468 13.028C33.8068 13.7214 33.7868 14.4347 33.7868 15.168C34.4268 13.5014 35.1602 12.2947 35.9868 11.548C36.8135 10.788 37.5868 10.408 38.3068 10.408C38.9735 10.408 39.5068 10.6347 39.9068 11.088C40.3202 11.5414 40.5268 12.1014 40.5268 12.768C40.5268 13.5014 40.3402 14.1747 39.9668 14.788C39.5935 15.4014 38.9535 15.948 38.0468 16.428C38.1002 16.788 38.2602 17.0814 38.5268 17.308C38.8068 17.5214 39.1402 17.628 39.5268 17.628C39.9402 17.628 40.3402 17.468 40.7268 17.148C41.1135 16.828 41.6202 16.2947 42.2468 15.548C42.4068 15.3614 42.5868 15.268 42.7868 15.268ZM36.3868 2.90803C36.1468 2.90803 35.8802 3.25469 35.5868 3.94803C35.2935 4.62803 35.0068 5.55469 34.7268 6.72803C34.4602 7.88803 34.2402 9.15469 34.0668 10.528C34.8935 9.55469 35.5735 8.49469 36.1068 7.34803C36.6535 6.20136 36.9268 5.16136 36.9268 4.22803C36.9268 3.80136 36.8802 3.47469 36.7868 3.24803C36.6935 3.02136 36.5602 2.90803 36.3868 2.90803ZM58.5147 3.14803C58.888 3.20136 59.1413 3.31469 59.2747 3.48803C59.4213 3.66136 59.4947 3.88803 59.4947 4.16803C59.4947 5.08803 59.0013 5.51469 58.0147 5.44803L57.3147 5.38803C56.528 5.32136 55.7413 5.26803 54.9547 5.22803C54.1813 5.18803 53.368 5.16803 52.5147 5.16803H51.6147C51.4547 7.14136 51.288 8.94136 51.1147 10.568L54.5547 10.508C55.048 10.508 55.3747 10.5947 55.5347 10.768C55.708 10.9414 55.7947 11.1747 55.7947 11.468C55.7947 11.9214 55.6613 12.2814 55.3947 12.548C55.128 12.8014 54.748 12.928 54.2547 12.928H50.8347L50.7147 13.788C50.4347 15.988 49.8347 17.5547 48.9147 18.488C48.008 19.4214 46.7547 19.888 45.1547 19.888C44.248 19.888 43.4147 19.6947 42.6547 19.308C41.8947 18.908 41.3347 18.428 40.9747 17.868C40.828 17.6414 40.7547 17.368 40.7547 17.048C40.7547 16.728 40.828 16.448 40.9747 16.208C41.1347 15.968 41.328 15.848 41.5547 15.848C41.7147 15.848 41.868 15.9014 42.0147 16.008C42.1747 16.1147 42.3747 16.3214 42.6147 16.628C43.2547 17.468 44.048 17.888 44.9947 17.888C45.7547 17.888 46.388 17.5814 46.8947 16.968C47.4147 16.3414 47.748 15.3614 47.8947 14.028L48.0147 12.928H47.0547C46.748 12.928 46.4813 12.8414 46.2547 12.668C46.0413 12.4947 45.9347 12.248 45.9347 11.928C45.9347 11.5147 46.0413 11.2014 46.2547 10.988C46.468 10.7614 46.7813 10.648 47.1947 10.648C47.568 10.648 47.9347 10.6414 48.2947 10.628C48.4547 9.16136 48.628 7.38136 48.8147 5.28803C47.3747 5.42136 46.3613 5.65469 45.7747 5.98803C45.188 6.32136 44.8947 6.81469 44.8947 7.46803C44.8947 7.92136 45.028 8.35469 45.2947 8.76803C45.3747 8.88803 45.4147 9.00803 45.4147 9.12803C45.4147 9.36803 45.2813 9.58136 45.0147 9.76803C44.748 9.94136 44.448 10.028 44.1147 10.028C43.7547 10.028 43.448 9.92136 43.1947 9.70803C43.0347 9.57469 42.8813 9.30136 42.7347 8.88803C42.588 8.47469 42.5147 8.01469 42.5147 7.50803C42.5147 5.85469 43.3613 4.65469 45.0547 3.90803C46.7613 3.16136 49.248 2.78803 52.5147 2.78803C54.7813 2.78803 56.7813 2.90803 58.5147 3.14803ZM63.5529 15.268C63.7263 15.268 63.8596 15.348 63.9529 15.508C64.0596 15.668 64.1129 15.888 64.1129 16.168C64.1129 16.7014 63.9863 17.1147 63.7329 17.408C63.1596 18.1147 62.5329 18.6947 61.8529 19.148C61.1863 19.6014 60.4263 19.828 59.5729 19.828C58.3996 19.828 57.5263 19.2947 56.9529 18.228C56.3929 17.1614 56.1129 15.7814 56.1129 14.088C56.1129 12.4614 56.3196 10.608 56.7329 8.52803C57.1596 6.44803 57.7796 4.66136 58.5929 3.16803C59.4196 1.67469 60.3996 0.928026 61.5329 0.928026C62.1729 0.928026 62.6729 1.22803 63.0329 1.82803C63.4063 2.41469 63.5929 3.26136 63.5929 4.36803C63.5929 5.95469 63.1529 7.79469 62.2729 9.88803C61.3929 11.9814 60.1996 14.0547 58.6929 16.108C58.7863 16.6547 58.9396 17.048 59.1529 17.288C59.3663 17.5147 59.6463 17.628 59.9929 17.628C60.5396 17.628 61.0196 17.4747 61.4329 17.168C61.8463 16.848 62.3729 16.308 63.0129 15.548C63.1729 15.3614 63.3529 15.268 63.5529 15.268ZM61.0929 2.90803C60.7863 2.90803 60.4396 3.46136 60.0529 4.56803C59.6663 5.67469 59.3263 7.04803 59.0329 8.68803C58.7396 10.328 58.5796 11.9014 58.5529 13.408C59.4996 11.848 60.2529 10.288 60.8129 8.72803C61.3729 7.15469 61.6529 5.72136 61.6529 4.42803C61.6529 3.41469 61.4663 2.90803 61.0929 2.90803ZM72.6964 13.588C72.8697 13.588 73.003 13.6747 73.0964 13.848C73.1897 14.0214 73.2364 14.2414 73.2364 14.508C73.2364 15.148 73.043 15.528 72.6564 15.648C71.8564 15.928 70.9764 16.088 70.0164 16.128C69.763 17.248 69.263 18.148 68.5164 18.828C67.7697 19.4947 66.923 19.828 65.9764 19.828C65.1764 19.828 64.4897 19.6347 63.9164 19.248C63.3564 18.8614 62.9297 18.348 62.6364 17.708C62.343 17.068 62.1964 16.3747 62.1964 15.628C62.1964 14.6147 62.3897 13.7147 62.7764 12.928C63.163 12.128 63.6964 11.508 64.3764 11.068C65.0564 10.6147 65.8097 10.388 66.6364 10.388C67.6497 10.388 68.463 10.7414 69.0764 11.448C69.703 12.1414 70.0697 13.0014 70.1764 14.028C70.803 13.988 71.5497 13.8547 72.4164 13.628C72.523 13.6014 72.6164 13.588 72.6964 13.588ZM66.1364 17.708C66.563 17.708 66.9297 17.5347 67.2364 17.188C67.5564 16.8414 67.7697 16.3414 67.8764 15.688C67.463 15.408 67.143 15.0414 66.9164 14.588C66.703 14.1347 66.5964 13.6547 66.5964 13.148C66.5964 12.9347 66.6164 12.7214 66.6564 12.508H66.5564C66.023 12.508 65.5764 12.768 65.2164 13.288C64.8697 13.7947 64.6964 14.5147 64.6964 15.448C64.6964 16.1814 64.8364 16.7414 65.1164 17.128C65.4097 17.5147 65.7497 17.708 66.1364 17.708ZM83.6951 10.388C84.4285 10.388 84.7951 10.6214 84.7951 11.088C84.7951 11.248 84.7418 11.468 84.6351 11.748C83.5551 14.268 82.5351 16.3014 81.5751 17.848C81.0951 18.608 80.6618 19.128 80.2751 19.408C79.8885 19.688 79.4485 19.828 78.9551 19.828C78.4218 19.828 78.0218 19.6214 77.7551 19.208C77.5018 18.7947 77.3418 18.1147 77.2751 17.168C77.2485 16.8214 77.2218 16.3014 77.1951 15.608C76.7818 16.7547 76.4018 17.6347 76.0551 18.248C75.7218 18.848 75.3885 19.2614 75.0551 19.488C74.7351 19.7147 74.3485 19.828 73.8951 19.828C73.3485 19.828 72.9151 19.6147 72.5951 19.188C72.2885 18.7614 72.0951 18.088 72.0151 17.168C71.8551 15.3014 71.7751 13.668 71.7751 12.268V11.568C71.7885 11.1147 71.9018 10.808 72.1151 10.648C72.3285 10.4747 72.6751 10.388 73.1551 10.388C73.5018 10.388 73.7551 10.468 73.9151 10.628C74.0885 10.7747 74.1751 11.028 74.1751 11.388C74.1751 12.9214 74.2685 14.9147 74.4551 17.368C74.8951 16.4347 75.3018 15.5414 75.6751 14.688C76.0485 13.8347 76.4818 12.7414 76.9751 11.408C77.1218 11.008 77.2951 10.7414 77.4951 10.608C77.7085 10.4614 77.9551 10.388 78.2351 10.388C78.6085 10.388 78.8885 10.468 79.0751 10.628C79.2618 10.7747 79.3551 11.028 79.3551 11.388V14.488C79.3551 15.8214 79.3618 16.7814 79.3751 17.368C79.9885 16.3014 80.4885 15.3747 80.8751 14.588C81.2751 13.8014 81.7218 12.7414 82.2151 11.408C82.3618 11.008 82.5551 10.7414 82.7951 10.608C83.0351 10.4614 83.3351 10.388 83.6951 10.388Z" fill="#F2F2F2"/>
</svg>
