<svg width="109" height="41" viewBox="0 0 109 41" fill="none" xmlns="http://www.w3.org/2000/svg">
<g clip-path="url(#clip0_11_393)">
<path d="M37.8014 29.707V17.5778H38.0185L46.8885 29.707H49.6797V11.8951H46.5783V23.9937H46.3612L37.4913 11.8951H34.7001V29.707H37.8014ZM58.4566 29.9819C62.5505 29.9819 65.0626 27.3545 65.0626 22.9549C65.0626 18.586 62.5505 15.9279 58.4566 15.9279C54.3938 15.9279 51.8507 18.586 51.8507 22.9549C51.8817 27.3545 54.3628 29.9819 58.4566 29.9819ZM58.4566 27.4156C56.2857 27.4156 55.0451 25.7963 55.0451 22.9549C55.0451 20.1441 56.2857 18.4943 58.4566 18.4943C60.6276 18.4943 61.8682 20.1441 61.8682 22.9549C61.8682 25.7963 60.6276 27.4156 58.4566 27.4156ZM67.8848 12.9033V16.2946H65.7139V18.7387H67.8848V26.1018C67.8848 28.7293 69.1254 29.7681 72.2888 29.7681C72.8781 29.7681 73.4673 29.707 73.9325 29.6153V27.2323C73.5604 27.2628 73.3123 27.2934 72.8781 27.2934C71.5755 27.2934 70.9862 26.7129 70.9862 25.3686V18.7387H73.9325V16.2946H70.9862V12.9033H67.8848ZM75.7934 29.707H78.8948V16.2029H75.7934V29.707ZM77.3441 13.9726C78.3675 13.9726 79.2049 13.1477 79.2049 12.1395C79.2049 11.1007 78.3675 10.2758 77.3441 10.2758C76.3206 10.2758 75.4832 11.1007 75.4832 12.1395C75.4832 13.1477 76.3206 13.9726 77.3441 13.9726ZM87.3925 29.9819C91.4864 29.9819 93.9985 27.3545 93.9985 22.9549C93.9985 18.586 91.4864 15.9279 87.3925 15.9279C83.3297 15.9279 80.7866 18.586 80.7866 22.9549C80.7866 27.3545 83.2677 29.9819 87.3925 29.9819ZM87.3925 27.4156C85.2216 27.4156 83.981 25.7963 83.981 22.9549C83.981 20.1441 85.2216 18.4943 87.3925 18.4943C89.5325 18.4943 90.8041 20.1441 90.8041 22.9549C90.773 25.7963 89.5325 27.4156 87.3925 27.4156ZM95.8283 29.707H98.9297V21.8551C98.9297 19.8692 100.108 18.6165 101.938 18.6165C103.83 18.6165 104.698 19.6553 104.698 21.7023V29.707H107.8V20.9691C107.8 17.7305 106.125 15.9279 103.086 15.9279C101.039 15.9279 99.674 16.8445 99.0227 18.3721H98.8056V16.2029H95.7973C95.8283 16.2029 95.8283 29.707 95.8283 29.707Z" fill="#868686"/>
<path fill-rule="evenodd" clip-rule="evenodd" d="M4.96309 10.755C5.86575 11.4799 6.19224 11.4226 7.88233 11.3082L23.8037 10.3545C24.1494 10.3545 23.8614 10.0111 23.7461 9.97296L21.0958 8.08458C20.5964 7.70309 19.905 7.2453 18.6182 7.35975L3.21538 8.48515C2.65842 8.54237 2.54319 8.82849 2.77365 9.03831L4.96309 10.755ZM5.92337 14.4364V31.0694C5.92337 31.9659 6.36509 32.2902 7.38299 32.233L24.8793 31.222C25.8972 31.1648 26.0124 30.5544 26.0124 29.8296V13.311C26.0124 12.5862 25.7243 12.1856 25.1097 12.2428L6.82603 13.311C6.15383 13.3682 5.92337 13.7116 5.92337 14.4364ZM23.1892 15.3329C23.3044 15.8288 23.1892 16.3439 22.6898 16.4011L21.8448 16.5728V28.8568C21.115 29.2382 20.4428 29.4671 19.8666 29.4671C18.9639 29.4671 18.7335 29.181 18.0613 28.3417L12.5493 19.7391V28.0556L14.297 28.4371C14.297 28.4371 14.297 29.4481 12.895 29.4481L9.01546 29.677C8.90023 29.4481 9.01546 28.8949 9.39957 28.7805L10.4175 28.4943V17.5074L9.01546 17.393C8.90023 16.897 9.18831 16.1722 9.97574 16.115L14.1433 15.8288L19.8858 24.5268V16.8398L18.4262 16.6681C18.311 16.0577 18.7719 15.6 19.3289 15.5427L23.1892 15.3329ZM1.92861 6.95919L17.9653 5.79564C19.9242 5.62397 20.4428 5.73842 21.6719 6.63492L26.7806 10.2019C27.6257 10.8122 27.9137 10.9839 27.9137 11.6515V31.2411C27.9137 32.4618 27.472 33.1867 25.8972 33.3011L7.28696 34.4265C6.09622 34.4837 5.53925 34.3121 4.92468 33.53L1.14118 28.666C0.468984 27.7695 0.180901 27.1019 0.180901 26.3198V8.90479C0.180901 7.89384 0.641834 7.07363 1.92861 6.95919Z" fill="#868686"/>
</g>
<defs>
<clipPath id="clip0_11_393">
<rect width="108" height="40" fill="white" transform="translate(0.180908 0.728027)"/>
</clipPath>
</defs>
</svg>
