<svg width="27" height="27" viewBox="0 0 27 27" fill="none" xmlns="http://www.w3.org/2000/svg">
<path d="M1.51425 9.72803H25.5143M1.51425 9.72803V21.4616C1.51425 22.9551 1.51425 23.7014 1.84123 24.2719C2.12885 24.7736 2.58746 25.182 3.15195 25.4377C3.79305 25.728 4.63274 25.728 6.30962 25.728H20.7189C22.3958 25.728 23.2342 25.728 23.8753 25.4377C24.4398 25.182 24.9 24.7736 25.1876 24.2719C25.5143 23.702 25.5143 22.9567 25.5143 21.4661V9.72803M1.51425 9.72803V8.66162C1.51425 7.16815 1.51425 6.42085 1.84123 5.85042C2.12885 5.34866 2.58746 4.94101 3.15195 4.68534C3.79368 4.39469 4.63439 4.39469 6.31454 4.39469H7.51425M25.5143 9.72803V8.65724C25.5143 7.16669 25.5143 6.4203 25.1876 5.85042C24.9 5.34866 24.4398 4.94101 23.8753 4.68534C23.2336 4.39469 22.3947 4.39469 20.7145 4.39469H19.5143M19.5143 1.72803V4.39469M19.5143 4.39469H7.51425M7.51425 1.72803V4.39469" stroke="#0D0006" stroke-width="2" stroke-linecap="round" stroke-linejoin="round"/>
</svg>
