<svg width="24" height="27" viewBox="0 0 24 27" fill="none" xmlns="http://www.w3.org/2000/svg">
<path d="M1.8476 9.72803H22.8476M1.8476 9.72803V21.4616C1.8476 22.9551 1.8476 23.7014 2.1337 24.2719C2.38537 24.7736 2.78665 25.182 3.28058 25.4377C3.84155 25.728 4.57627 25.728 6.04354 25.728H18.6517C20.1189 25.728 20.8526 25.728 21.4136 25.4377C21.9075 25.182 22.3101 24.7736 22.5618 24.2719C22.8476 23.702 22.8476 22.9567 22.8476 21.4661V9.72803M1.8476 9.72803V8.66162C1.8476 7.16815 1.8476 6.42085 2.1337 5.85042C2.38537 5.34866 2.78665 4.94101 3.28058 4.68534C3.8421 4.39469 4.57771 4.39469 6.04785 4.39469H7.0976M22.8476 9.72803V8.65724C22.8476 7.16669 22.8476 6.4203 22.5618 5.85042C22.3101 5.34866 21.9075 4.94101 21.4136 4.68534C20.852 4.39469 20.118 4.39469 18.6479 4.39469H17.5976M7.0976 4.39469H17.5976M7.0976 4.39469V1.72803M17.5976 4.39469V1.72803M16.2851 15.0614L11.0351 20.3947L8.4101 17.728" stroke="#0D0006" stroke-width="2" stroke-linecap="round" stroke-linejoin="round"/>
</svg>
