<svg width="25" height="27" viewBox="0 0 25 27" fill="none" xmlns="http://www.w3.org/2000/svg">
<path d="M1.18091 9.72803H23.1809M1.18091 9.72803V21.4616C1.18091 22.9551 1.18091 23.7014 1.48064 24.2719C1.74429 24.7736 2.16468 25.182 2.68213 25.4377C3.26981 25.728 4.03952 25.728 5.57666 25.728H18.7858C20.323 25.728 21.0916 25.728 21.6792 25.4377C22.1967 25.182 22.6178 24.7736 22.8815 24.2719C23.1809 23.702 23.1809 22.9567 23.1809 21.4661V9.72803M1.18091 9.72803V8.66162C1.18091 7.16815 1.18091 6.42085 1.48064 5.85042C1.74429 5.34866 2.16468 4.94101 2.68213 4.68534C3.27039 4.39469 4.04103 4.39469 5.58118 4.39469H6.68091M23.1809 9.72803V8.65724C23.1809 7.16669 23.1809 6.4203 22.8815 5.85042C22.6178 5.34866 22.1967 4.94101 21.6792 4.68534C21.091 4.39469 20.3213 4.39469 18.7812 4.39469H17.6809M6.68091 4.39469H17.6809M6.68091 4.39469V1.72803M17.6809 4.39469V1.72803M15.6184 17.728H12.1809M12.1809 17.728H8.74341M12.1809 17.728V14.3947M12.1809 17.728V21.0614" stroke="#0D0006" stroke-width="2" stroke-linecap="round" stroke-linejoin="round"/>
</svg>
