<svg width="25" height="25" viewBox="0 0 25 25" fill="none" xmlns="http://www.w3.org/2000/svg">
<path d="M21.7739 7.93104C21.66 7.50844 21.4374 7.12304 21.1282 6.8132C20.8191 6.50337 20.4342 6.2799 20.0119 6.16503C18.4459 5.73503 12.1809 5.72803 12.1809 5.72803C12.1809 5.72803 5.91687 5.72103 4.34987 6.13203C3.9278 6.25218 3.54369 6.47881 3.23444 6.79017C2.92518 7.10153 2.70116 7.48716 2.58387 7.91004C2.17087 9.47604 2.16687 12.724 2.16687 12.724C2.16687 12.724 2.16287 15.988 2.57287 17.538C2.80287 18.395 3.47787 19.072 4.33587 19.303C5.91787 19.733 12.1659 19.74 12.1659 19.74C12.1659 19.74 18.4309 19.747 19.9969 19.337C20.4194 19.2224 20.8046 18.9994 21.1145 18.6902C21.4244 18.381 21.6483 17.9963 21.7639 17.574C22.1779 16.009 22.1809 12.762 22.1809 12.762C22.1809 12.762 22.2009 9.49704 21.7739 7.93104ZM10.1769 15.733L10.1819 9.73304L15.3889 12.738L10.1769 15.733Z" fill="#F2F2F2"/>
</svg>
