<svg width="113" height="41" viewBox="0 0 113 41" fill="none" xmlns="http://www.w3.org/2000/svg">
<g clip-path="url(#clip0_11_390)">
<path fill-rule="evenodd" clip-rule="evenodd" d="M112.141 26.1973C107.483 32.7784 100.107 30.8688 97.891 29.3736C96.9481 29.9068 95.2947 31.0753 93.09 30.9404C88.3948 30.6532 86.7134 25.0617 86.7134 25.0617C86.7471 25.0841 85.3148 25.4736 84.5407 25.4667C84.5307 27.1064 82.8298 31.0234 78.2394 30.9733C73.0883 30.9173 72.0411 24.5221 72.0411 24.5221C72.0411 24.5221 71.5286 25.1153 69.5795 25.7061C69.6776 24.4464 69.6059 30.7815 63.4321 30.8746C58.5513 30.9483 57.2338 24.4235 57.2338 24.4235C57.2338 24.4235 56.3871 25.1565 54.7462 25.4107C54.8505 24.1304 54.681 30.8961 48.5064 30.8746C44.3338 30.8602 42.9079 26.8554 43.0187 26.2995C43.1603 25.5911 41.6085 30.9742 37.5554 30.8904C35.8828 30.8495 34.6359 29.8403 33.8534 28.4948C32.8059 29.4936 31.2851 30.8904 29.5791 30.8904C26.5167 30.8904 25.1666 28.7559 25.3953 22.6595C25.4148 21.9364 25.3522 21.652 24.4896 21.5438C23.9719 21.4718 23.4417 21.3356 22.8807 21.2637C22.7009 21.7637 21.1758 30.7277 15.9318 30.8979C14.1725 30.9549 13.2105 29.6849 12.4205 28.7423C11.2095 30.0774 9.61088 30.9404 7.33353 30.9404C3.47587 30.9404 0.847534 28.3416 0.847534 25.1358C0.847534 21.9299 3.47587 19.3314 7.33353 19.3314C8.0156 19.3314 8.20708 19.4129 8.83019 19.5644C7.54873 9.84158 10.575 8.32205 13.2224 8.32205C15.764 8.32205 20.106 13.2379 13.9964 25.7071C15.3528 29.4263 18.2771 29.216 19.6823 21.5597C19.9683 20.0034 19.2036 17.9033 20.3931 17.6102C22.5674 17.0745 22.7981 18.6817 23.8176 18.9495C24.8956 19.2325 25.5248 19.2049 26.5597 19.385C28.328 19.6728 29.0181 20.4644 28.8026 22.2275C28.5439 24.4585 28.0913 27.7055 29.4713 28.1013C30.4664 28.3888 32.2833 26.669 32.6022 25.728C32.9209 24.787 32.9875 24.4649 33.0158 23.7747C33.0589 22.2996 33.113 21.2183 33.4149 20.1028C33.5441 19.6711 33.6913 19.3852 34.2774 19.3657C34.7597 19.3554 35.6416 19.2344 36.0298 19.4862C36.5472 19.8102 36.4825 20.139 36.4231 21.0042C35.8214 33.3406 40.4531 27.1822 41.8341 22.2511C41.3423 16.6753 41.68 8.42416 45.8729 8.28577C48.0535 8.2138 49.0176 9.66958 49.1236 10.7562C49.4235 13.8252 47.7435 18.9089 45.5339 22.3276C44.2711 29.3035 51.0552 30.6827 52.1401 25.1147C50.3651 24.4114 48.4469 21.5648 50.0079 20.1776C50.8837 19.3991 54.5297 20.5175 54.5894 22.9568C56.3779 22.5583 56.6167 21.7168 56.6414 21.8562C56.1498 16.2803 56.6058 8.42423 60.799 8.28584C62.9793 8.21387 63.9432 9.66966 64.0493 10.7563C64.3492 13.8252 62.6691 18.9089 60.4599 22.3278C59.197 29.3035 65.9812 30.6829 67.0658 25.1148C65.7516 24.9035 62.9776 21.8758 64.5782 20.1777C65.4335 19.2703 69.0662 21.1574 69.4729 23.0376C71.1909 22.6325 71.4243 21.8177 71.4489 21.9549C70.9571 16.3792 71.4131 8.52305 75.6063 8.38466C77.7867 8.31269 78.7506 9.76847 78.8566 10.8551C79.1565 13.924 77.4765 19.0078 75.2669 22.4266C74.0043 29.4025 80.7884 30.7815 81.8732 25.2134C80.0673 24.9629 77.5008 21.766 79.5665 20.1306C80.3918 19.4772 83.5452 21.1734 84.2834 23.1085C85.3091 23.0756 85.9475 22.7808 86.0843 22.7511C84.447 16.2054 85.6659 8.3515 90.1766 8.28594C92.6147 8.25054 94.9982 9.38431 93.952 15.6117C92.9533 21.5534 89.3637 24.0468 89.372 24.0849C89.5809 24.7968 91.4229 30.7539 96.0613 27.6107C95.8212 27.1576 95.5809 26.6948 95.4465 26.134C94.6777 22.8676 96.1878 19.1782 100.292 18.5819C102.644 18.2403 104.859 19.1944 105.209 21.3453C105.786 24.865 101.972 27.4139 100.522 27.9668C99.872 27.6593 106.41 31.1534 110.29 24.1512C110.515 23.7514 110.786 23.7853 111.137 23.9913C111.385 24.1369 112.799 25.2528 112.141 26.1973ZM10.1396 24.271C9.94222 23.7791 9.53708 22.6954 9.39382 22.2258C8.60481 21.6541 8.04164 21.5612 7.02887 21.5612C4.7782 21.5612 3.45349 23.2953 3.45349 25.1651C3.45349 27.0349 4.89666 28.7692 7.14735 28.7692C9.09783 28.7692 10.5823 27.6641 11.0352 26.0997C10.7182 25.4898 10.4037 24.9293 10.1396 24.271ZM13.1672 10.8957C11.5858 10.8957 11.0493 14.0395 11.1534 16.7215C11.2455 19.0927 12.0406 21.1802 12.4531 22.1156C12.5578 22.2328 12.5383 22.1565 12.6318 22.2808C15.3777 17.2672 14.2388 10.8957 13.1672 10.8957ZM46.0987 10.9945C44.0548 10.7991 44.068 17.8946 44.3217 19.4862C45.3833 18.071 47.2273 11.3755 46.0987 10.9945ZM61.0244 10.9945C58.9805 10.7991 58.9937 17.8946 59.2476 19.4862C60.309 18.071 62.1532 11.3755 61.0244 10.9945ZM75.8319 11.0932C73.7878 10.8979 73.801 17.9934 74.0549 19.5851C75.1163 18.1698 76.9605 11.4742 75.8319 11.0932ZM90.4022 10.5791C87.2176 11.112 87.9592 19.9603 88.4429 21.5122C92.194 17.2187 92.2713 10.4179 90.4022 10.5791ZM102.337 21.6365C102.175 21.0723 101.366 20.7708 100.807 20.8451C99.2079 21.0271 97.6571 22.6866 98.2574 25.2132C98.391 25.7759 98.7254 26.2939 98.72 26.2766C102.298 24.276 102.603 22.6994 102.337 21.6365ZM34.9043 17.4127C34.4473 17.4128 34.0005 17.2999 33.6205 17.0884C33.2405 16.8768 32.9442 16.5761 32.7692 16.2243C32.5943 15.8725 32.5485 15.4853 32.6377 15.1118C32.7267 14.7382 32.9469 14.3951 33.27 14.1258C33.5931 13.8565 34.0048 13.6731 34.453 13.5988C34.9012 13.5244 35.3658 13.5626 35.7881 13.7083C36.2103 13.8541 36.5711 14.1009 36.825 14.4175C37.0789 14.7342 37.2144 15.1065 37.2144 15.4873C37.2144 15.7402 37.1547 15.9905 37.0386 16.2241C36.9225 16.4577 36.7524 16.6699 36.5378 16.8487C36.3233 17.0275 36.0687 17.1693 35.7884 17.2661C35.5081 17.3629 35.2077 17.4127 34.9043 17.4127Z" fill="#868686"/>
</g>
<defs>
<clipPath id="clip0_11_390">
<rect width="112" height="40" fill="white" transform="translate(0.847534 0.728027)"/>
</clipPath>
</defs>
</svg>
