<svg width="342" height="361" viewBox="0 0 342 361" fill="none" xmlns="http://www.w3.org/2000/svg">
<path d="M16.9743 12.808C16.9743 13.9414 16.6809 14.9814 16.0943 15.928C15.5076 16.8747 14.6543 17.648 13.5343 18.248C12.4143 18.848 11.0809 19.2014 9.53428 19.308L8.67428 24.128C8.34095 25.9814 7.43428 26.908 5.95428 26.908C5.14095 26.908 4.38762 26.668 3.69428 26.188C3.01428 25.708 2.46762 24.9747 2.05428 23.988C1.64095 23.0014 1.43428 21.788 1.43428 20.348C1.43428 17.6414 1.86762 15.348 2.73428 13.468C3.61428 11.5747 4.78762 10.1614 6.25428 9.22803C7.73428 8.28136 9.36095 7.80803 11.1343 7.80803C12.3876 7.80803 13.4476 8.02803 14.3143 8.46803C15.1943 8.90803 15.8543 9.50803 16.2943 10.268C16.7476 11.0147 16.9743 11.8614 16.9743 12.808ZM9.89428 17.248C12.6276 16.9014 13.9943 15.4814 13.9943 12.988C13.9943 12.108 13.7009 11.3947 13.1143 10.848C12.5409 10.288 11.6476 10.008 10.4343 10.008C9.06095 10.008 7.86095 10.4414 6.83428 11.308C5.82095 12.1747 5.03428 13.3814 4.47428 14.928C3.92762 16.4614 3.65428 18.2147 3.65428 20.188C3.65428 21.0147 3.73428 21.748 3.89428 22.388C4.06762 23.028 4.28095 23.528 4.53428 23.888C4.80095 24.2347 5.05428 24.408 5.29428 24.408C5.62762 24.408 5.88095 23.948 6.05428 23.028L6.71428 19.248C6.19428 19.168 5.96762 19.1347 6.03428 19.148C5.63428 19.0814 5.37428 18.9614 5.25428 18.788C5.13428 18.6014 5.07428 18.368 5.07428 18.088C5.07428 17.7947 5.15428 17.5614 5.31428 17.388C5.48762 17.2147 5.72095 17.128 6.01428 17.128C6.14762 17.128 6.24762 17.1347 6.31428 17.148C6.63428 17.2014 6.88095 17.2347 7.05428 17.248C7.22762 16.208 7.47428 14.8147 7.79428 13.068C7.87428 12.6147 8.05428 12.2947 8.33428 12.108C8.62762 11.908 8.96762 11.808 9.35428 11.808C9.79428 11.808 10.1076 11.8947 10.2943 12.068C10.4943 12.228 10.5943 12.488 10.5943 12.848C10.5943 13.0614 10.5809 13.2347 10.5543 13.368L9.89428 17.248ZM17.7966 24.828C17.29 24.828 16.93 24.5614 16.7166 24.028C16.5166 23.4947 16.4166 22.6414 16.4166 21.468C16.4166 19.7347 16.6633 18.088 17.1566 16.528C17.2766 16.1414 17.47 15.8614 17.7366 15.688C18.0166 15.5014 18.4033 15.408 18.8966 15.408C19.1633 15.408 19.35 15.4414 19.4566 15.508C19.5633 15.5747 19.6166 15.7014 19.6166 15.888C19.6166 16.1014 19.5166 16.5814 19.3166 17.328C19.1833 17.8614 19.0766 18.328 18.9966 18.728C18.9166 19.128 18.85 19.6214 18.7966 20.208C19.2366 19.0614 19.73 18.128 20.2766 17.408C20.8233 16.688 21.3566 16.1747 21.8766 15.868C22.41 15.5614 22.8966 15.408 23.3366 15.408C24.2033 15.408 24.6366 15.8414 24.6366 16.708C24.6366 16.8814 24.5766 17.3014 24.4566 17.968C24.35 18.5014 24.2966 18.8347 24.2966 18.968C24.2966 19.4347 24.4633 19.668 24.7966 19.668C25.17 19.668 25.65 19.3747 26.2366 18.788C26.41 18.6147 26.59 18.528 26.7766 18.528C26.95 18.528 27.0833 18.608 27.1766 18.768C27.2833 18.9147 27.3366 19.1147 27.3366 19.368C27.3366 19.8614 27.2033 20.248 26.9366 20.528C26.5633 20.9147 26.1233 21.248 25.6166 21.528C25.1233 21.7947 24.5966 21.928 24.0366 21.928C23.33 21.928 22.79 21.748 22.4166 21.388C22.0566 21.028 21.8766 20.5414 21.8766 19.928C21.8766 19.728 21.8966 19.528 21.9366 19.328C21.9633 19.0614 21.9766 18.8814 21.9766 18.788C21.9766 18.5747 21.9033 18.468 21.7566 18.468C21.5566 18.468 21.29 18.6947 20.9566 19.148C20.6366 19.588 20.3166 20.1747 19.9966 20.908C19.6766 21.6414 19.4166 22.4147 19.2166 23.228C19.07 23.8547 18.8966 24.2814 18.6966 24.508C18.51 24.7214 18.21 24.828 17.7966 24.828ZM28.8582 24.828C28.0715 24.828 27.3982 24.6347 26.8382 24.248C26.2915 23.848 25.8782 23.328 25.5982 22.688C25.3182 22.048 25.1782 21.3614 25.1782 20.628C25.1782 19.6147 25.3649 18.7147 25.7382 17.928C26.1249 17.128 26.6449 16.508 27.2982 16.068C27.9515 15.6147 28.6849 15.388 29.4982 15.388C30.2849 15.388 30.9582 15.588 31.5182 15.988C32.0782 16.3747 32.4982 16.888 32.7782 17.528C33.0582 18.168 33.1982 18.8547 33.1982 19.588C33.1982 20.6014 33.0049 21.508 32.6182 22.308C32.2315 23.0947 31.7049 23.7147 31.0382 24.168C30.3849 24.608 29.6582 24.828 28.8582 24.828ZM29.0782 22.668C29.5315 22.668 29.9115 22.4214 30.2182 21.928C30.5382 21.4347 30.6982 20.7147 30.6982 19.768C30.6982 19.0347 30.5649 18.4814 30.2982 18.108C30.0315 17.7347 29.7115 17.548 29.3382 17.548C28.8582 17.548 28.4582 17.7947 28.1382 18.288C27.8315 18.768 27.6782 19.488 27.6782 20.448C27.6782 21.208 27.8115 21.768 28.0782 22.128C28.3449 22.488 28.6782 22.668 29.0782 22.668ZM50.5137 20.268C50.687 20.268 50.8203 20.348 50.9137 20.508C51.0203 20.668 51.0737 20.888 51.0737 21.168C51.0737 21.7014 50.947 22.1147 50.6937 22.408C50.1203 23.1147 49.5003 23.6947 48.8337 24.148C48.1803 24.6014 47.4337 24.828 46.5937 24.828C45.887 24.828 45.3137 24.5747 44.8737 24.068C44.1137 24.5614 43.3203 24.8147 42.4937 24.828C42.3203 27.4014 41.927 29.548 41.3137 31.268C40.7003 33.0014 39.8003 33.868 38.6137 33.868C37.8937 33.868 37.3603 33.608 37.0137 33.088C36.667 32.568 36.4937 31.848 36.4937 30.928C36.4937 29.6214 36.7937 28.0947 37.3937 26.348C37.9937 24.6147 38.9203 22.7014 40.1737 20.608C40.1737 18.6614 40.1603 17.308 40.1337 16.548C40.1203 16.1614 40.2737 15.8547 40.5937 15.628C40.9137 15.4014 41.3137 15.288 41.7937 15.288C42.0737 15.288 42.2737 15.348 42.3937 15.468C42.527 15.5747 42.6003 15.7947 42.6137 16.128C42.6137 16.4614 42.6203 16.708 42.6337 16.868C43.0603 16.3347 43.4803 15.9547 43.8937 15.728C44.307 15.488 44.747 15.368 45.2137 15.368C45.9603 15.368 46.567 15.668 47.0337 16.268C47.5137 16.868 47.7537 17.6547 47.7537 18.628C47.7537 19.3347 47.6403 20.0214 47.4137 20.688C47.187 21.3547 46.8737 21.9614 46.4737 22.508C46.7537 22.588 46.987 22.628 47.1737 22.628C47.6137 22.628 48.0337 22.468 48.4337 22.148C48.8337 21.828 49.347 21.2947 49.9737 20.548C50.1337 20.3614 50.3137 20.268 50.5137 20.268ZM42.5937 22.908C43.0737 22.8014 43.5137 22.5414 43.9137 22.128C44.327 21.7014 44.6537 21.1814 44.8937 20.568C45.1337 19.9414 45.2537 19.288 45.2537 18.608C45.2537 18.208 45.1737 17.908 45.0137 17.708C44.8537 17.4947 44.6403 17.388 44.3737 17.388C43.8937 17.388 43.3137 17.8947 42.6337 18.908C42.6203 19.4947 42.6137 20.3547 42.6137 21.488C42.6137 22.1014 42.607 22.5747 42.5937 22.908ZM38.7737 31.908C39.1337 31.908 39.4337 31.1214 39.6737 29.548C39.9137 27.988 40.067 26.0414 40.1337 23.708C39.5603 25.0414 39.107 26.3147 38.7737 27.528C38.4403 28.7414 38.2737 29.7614 38.2737 30.588C38.2737 31.0147 38.327 31.3414 38.4337 31.568C38.527 31.7947 38.6403 31.908 38.7737 31.908ZM57.0426 20.268C57.2159 20.268 57.3492 20.348 57.4426 20.508C57.5492 20.668 57.6026 20.888 57.6026 21.168C57.6026 21.7014 57.4759 22.1147 57.2226 22.408C56.6492 23.1147 56.0226 23.6947 55.3426 24.148C54.6759 24.6014 53.9159 24.828 53.0626 24.828C51.8892 24.828 51.0159 24.2947 50.4426 23.228C49.8826 22.1614 49.6026 20.7814 49.6026 19.088C49.6026 17.4614 49.8092 15.608 50.2226 13.528C50.6492 11.448 51.2692 9.66136 52.0826 8.16803C52.9092 6.67469 53.8892 5.92803 55.0226 5.92803C55.6626 5.92803 56.1626 6.22803 56.5226 6.82803C56.8959 7.41469 57.0826 8.26136 57.0826 9.36803C57.0826 10.9547 56.6426 12.7947 55.7626 14.888C54.8826 16.9814 53.6892 19.0547 52.1826 21.108C52.2759 21.6547 52.4292 22.048 52.6426 22.288C52.8559 22.5147 53.1359 22.628 53.4826 22.628C54.0292 22.628 54.5092 22.4747 54.9226 22.168C55.3359 21.848 55.8626 21.308 56.5026 20.548C56.6626 20.3614 56.8426 20.268 57.0426 20.268ZM54.5826 7.90803C54.2759 7.90803 53.9292 8.46136 53.5426 9.56803C53.1559 10.6747 52.8159 12.048 52.5226 13.688C52.2292 15.328 52.0692 16.9014 52.0426 18.408C52.9892 16.848 53.7426 15.288 54.3026 13.728C54.8626 12.1547 55.1426 10.7214 55.1426 9.42803C55.1426 8.41469 54.9559 7.90803 54.5826 7.90803ZM58.2507 24.828C57.424 24.828 56.764 24.528 56.2707 23.928C55.7774 23.328 55.5307 22.5414 55.5307 21.568C55.5307 20.5014 55.7774 19.4947 56.2707 18.548C56.764 17.588 57.4174 16.8214 58.2307 16.248C59.0574 15.6614 59.9307 15.368 60.8507 15.368C61.144 15.368 61.3374 15.428 61.4307 15.548C61.5374 15.6547 61.624 15.8547 61.6907 16.148C61.9707 16.0947 62.264 16.068 62.5707 16.068C63.224 16.068 63.5507 16.3014 63.5507 16.768C63.5507 17.048 63.4507 17.7147 63.2507 18.768C62.944 20.3014 62.7907 21.368 62.7907 21.968C62.7907 22.168 62.8374 22.328 62.9307 22.448C63.0374 22.568 63.1707 22.628 63.3307 22.628C63.584 22.628 63.8907 22.468 64.2507 22.148C64.6107 21.8147 65.0974 21.2814 65.7107 20.548C65.8707 20.3614 66.0507 20.268 66.2507 20.268C66.424 20.268 66.5574 20.348 66.6507 20.508C66.7574 20.668 66.8107 20.888 66.8107 21.168C66.8107 21.7014 66.684 22.1147 66.4307 22.408C65.884 23.088 65.304 23.6614 64.6907 24.128C64.0774 24.5947 63.484 24.828 62.9107 24.828C62.4707 24.828 62.064 24.6814 61.6907 24.388C61.3307 24.0814 61.0574 23.668 60.8707 23.148C60.1774 24.268 59.304 24.828 58.2507 24.828ZM58.9707 22.808C59.264 22.808 59.544 22.6347 59.8107 22.288C60.0774 21.9414 60.2707 21.4814 60.3907 20.908L61.1307 17.228C60.5707 17.2414 60.0507 17.4547 59.5707 17.868C59.104 18.268 58.7307 18.8014 58.4507 19.468C58.1707 20.1347 58.0307 20.8414 58.0307 21.588C58.0307 22.0014 58.1107 22.308 58.2707 22.508C58.444 22.708 58.6774 22.808 58.9707 22.808ZM66.6052 24.828C66.0986 24.828 65.7386 24.5614 65.5252 24.028C65.3252 23.4947 65.2252 22.6414 65.2252 21.468C65.2252 19.7347 65.4719 18.088 65.9652 16.528C66.0852 16.1414 66.2786 15.8614 66.5452 15.688C66.8252 15.5014 67.2119 15.408 67.7052 15.408C67.9719 15.408 68.1586 15.4414 68.2652 15.508C68.3719 15.5747 68.4252 15.7014 68.4252 15.888C68.4252 16.1014 68.3252 16.5814 68.1252 17.328C67.9919 17.8614 67.8852 18.328 67.8052 18.728C67.7252 19.128 67.6586 19.6214 67.6052 20.208C68.0452 19.0614 68.5386 18.128 69.0852 17.408C69.6319 16.688 70.1652 16.1747 70.6852 15.868C71.2186 15.5614 71.7052 15.408 72.1452 15.408C72.5719 15.408 72.8919 15.5214 73.1052 15.748C73.3319 15.9614 73.4452 16.2814 73.4452 16.708C73.4452 17.0547 73.3719 17.708 73.2252 18.668C73.0919 19.4814 72.9852 20.2547 72.9052 20.988C72.8252 21.708 72.7852 22.5147 72.7852 23.408C72.7852 23.9147 72.6786 24.2814 72.4652 24.508C72.2652 24.7214 71.9319 24.828 71.4652 24.828C71.0252 24.828 70.7052 24.7147 70.5052 24.488C70.3052 24.2614 70.2052 23.9214 70.2052 23.468C70.2052 22.9347 70.2986 22.0547 70.4852 20.828C70.6452 19.7614 70.7252 19.0814 70.7252 18.788C70.7252 18.5747 70.6519 18.468 70.5052 18.468C70.3319 18.468 70.0852 18.6947 69.7652 19.148C69.4586 19.588 69.1386 20.1747 68.8052 20.908C68.4852 21.6414 68.2252 22.4147 68.0252 23.228C67.8786 23.8547 67.7052 24.2814 67.5052 24.508C67.3186 24.7214 67.0186 24.828 66.6052 24.828Z" fill="black"/>
<path d="M317.848 9.72803H338.848M317.848 9.72803V21.4616C317.848 22.9551 317.848 23.7014 318.134 24.2719C318.385 24.7736 318.787 25.182 319.281 25.4377C319.842 25.728 320.576 25.728 322.044 25.728H334.652C336.119 25.728 336.853 25.728 337.414 25.4377C337.907 25.182 338.31 24.7736 338.562 24.2719C338.848 23.702 338.848 22.9567 338.848 21.4661V9.72803M317.848 9.72803V8.66162C317.848 7.16815 317.848 6.42085 318.134 5.85042C318.385 5.34866 318.787 4.94101 319.281 4.68534C319.842 4.39469 320.578 4.39469 322.048 4.39469H323.098M338.848 9.72803V8.65724C338.848 7.16669 338.848 6.4203 338.562 5.85042C338.31 5.34866 337.907 4.94101 337.414 4.68534C336.852 4.39469 336.118 4.39469 334.648 4.39469H333.598M323.098 4.39469H333.598M323.098 4.39469V1.72803M333.598 4.39469V1.72803M332.285 15.0614L327.035 20.3947L324.41 17.728" stroke="#0D0006" stroke-width="2" stroke-linecap="round" stroke-linejoin="round"/>
<path d="M33.7223 71.304C33.7223 73.3574 33.181 75.2614 32.0983 77.016C31.0529 78.7334 29.4849 80.152 27.3943 81.272C25.3409 82.3547 22.8956 82.952 20.0583 83.064V87.6H16.4743V83.008C12.5169 82.672 9.32495 81.496 6.89828 79.48C4.47162 77.4267 3.18362 74.6454 3.03428 71.136H13.2263C13.4503 73.376 14.5329 74.8134 16.4743 75.448V66.6C13.5623 65.8534 11.2289 65.1254 9.47428 64.416C7.75695 63.7067 6.24495 62.568 4.93828 61C3.63162 59.432 2.97828 57.2854 2.97828 54.56C2.97828 51.1627 4.22895 48.4374 6.73028 46.384C9.26895 44.3307 12.5169 43.1734 16.4743 42.912V38.376H20.0583V42.912C23.9783 43.2107 27.077 44.3494 29.3543 46.328C31.6316 48.3067 32.901 51.0507 33.1623 54.56H22.9143C22.6903 52.544 21.7383 51.2374 20.0583 50.64V59.32C23.1569 60.1787 25.5463 60.944 27.2263 61.616C28.9063 62.288 30.3996 63.408 31.7063 64.976C33.0503 66.5067 33.7223 68.616 33.7223 71.304ZM13.1143 54.112C13.1143 55.0454 13.3943 55.8294 13.9543 56.464C14.5516 57.0987 15.3916 57.6587 16.4743 58.144V50.36C15.4289 50.5467 14.6076 50.9574 14.0103 51.592C13.4129 52.1894 13.1143 53.0294 13.1143 54.112ZM20.0583 75.616C21.1783 75.4294 22.0556 74.9814 22.6903 74.272C23.3623 73.5627 23.6983 72.6854 23.6983 71.64C23.6983 70.6694 23.381 69.8854 22.7463 69.288C22.1489 68.6534 21.2529 68.112 20.0583 67.664V75.616ZM39.5577 75.056C40.827 74.048 41.4057 73.5814 41.2937 73.656C44.9523 70.632 47.827 68.1494 49.9177 66.208C52.0457 64.2667 53.8377 62.232 55.2937 60.104C56.7497 57.976 57.4777 55.904 57.4777 53.888C57.4777 52.3574 57.123 51.1627 56.4137 50.304C55.7043 49.4454 54.6403 49.016 53.2217 49.016C51.803 49.016 50.683 49.5574 49.8617 50.64C49.0777 51.6854 48.6857 53.1787 48.6857 55.12H39.4457C39.5203 51.9467 40.1923 49.296 41.4617 47.168C42.7683 45.04 44.467 43.472 46.5577 42.464C48.6857 41.456 51.0377 40.952 53.6137 40.952C58.0563 40.952 61.3977 42.0907 63.6377 44.368C65.915 46.6454 67.0537 49.6134 67.0537 53.272C67.0537 57.2667 65.691 60.9814 62.9657 64.416C60.2403 67.8134 56.7683 71.136 52.5497 74.384H67.6697V82.168H39.5577V75.056ZM82.1898 70.744C82.7498 73.6934 84.4672 75.168 87.3418 75.168C89.3205 75.168 90.7205 74.2907 91.5418 72.536C92.3632 70.7814 92.7738 67.9254 92.7738 63.968C91.9525 65.1254 90.8325 66.0214 89.4138 66.656C87.9952 67.2907 86.4085 67.608 84.6538 67.608C82.2645 67.608 80.1365 67.1227 78.2698 66.152C76.4032 65.144 74.9285 63.6694 73.8458 61.728C72.8005 59.7494 72.2778 57.36 72.2778 54.56C72.2778 51.7974 72.8378 49.3894 73.9578 47.336C75.1152 45.2827 76.7392 43.696 78.8298 42.576C80.9578 41.456 83.4592 40.896 86.3338 40.896C91.8592 40.896 95.7232 42.6134 97.9258 46.048C100.129 49.4827 101.23 54.5414 101.23 61.224C101.23 66.0774 100.782 70.0907 99.8858 73.264C99.0272 76.4 97.5525 78.7894 95.4618 80.432C93.4085 82.0747 90.5898 82.896 87.0058 82.896C84.1685 82.896 81.7418 82.336 79.7258 81.216C77.7472 80.096 76.2165 78.6214 75.1338 76.792C74.0885 74.9627 73.4912 72.9467 73.3418 70.744H82.1898ZM86.8378 60.048C88.4058 60.048 89.6565 59.5814 90.5898 58.648C91.5232 57.6774 91.9898 56.3707 91.9898 54.728C91.9898 52.936 91.5045 51.5547 90.5338 50.584C89.5632 49.6134 88.2565 49.128 86.6138 49.128C84.9712 49.128 83.6645 49.632 82.6938 50.64C81.7605 51.6107 81.2938 52.9547 81.2938 54.672C81.2938 56.2774 81.7605 57.584 82.6938 58.592C83.6645 59.5627 85.0458 60.048 86.8378 60.048ZM117.995 52.328L109.419 88.712H104.139L112.715 52.328H117.995ZM143.087 64.68C145.306 64.68 147.066 65.352 148.367 66.696C149.69 68.04 150.351 69.9067 150.351 72.296V82.728H144.911V73.032C144.911 71.88 144.602 70.9947 143.983 70.376C143.386 69.736 142.554 69.416 141.487 69.416C140.42 69.416 139.578 69.736 138.959 70.376C138.362 70.9947 138.063 71.88 138.063 73.032V82.728H132.623V73.032C132.623 71.88 132.314 70.9947 131.695 70.376C131.098 69.736 130.266 69.416 129.199 69.416C128.132 69.416 127.29 69.736 126.671 70.376C126.074 70.9947 125.775 71.88 125.775 73.032V82.728H120.303V64.872H125.775V67.112C126.33 66.3654 127.055 65.7787 127.951 65.352C128.847 64.904 129.86 64.68 130.991 64.68C132.335 64.68 133.53 64.968 134.575 65.544C135.642 66.12 136.474 66.9414 137.071 68.008C137.69 67.0267 138.532 66.2267 139.599 65.608C140.666 64.9894 141.828 64.68 143.087 64.68ZM162.306 82.984C160.557 82.984 158.978 82.6107 157.57 81.864C156.183 81.1174 155.085 80.0507 154.274 78.664C153.485 77.2774 153.09 75.656 153.09 73.8C153.09 71.9654 153.495 70.3547 154.306 68.968C155.117 67.56 156.226 66.4827 157.634 65.736C159.042 64.9894 160.621 64.616 162.37 64.616C164.119 64.616 165.698 64.9894 167.106 65.736C168.514 66.4827 169.623 67.56 170.434 68.968C171.245 70.3547 171.65 71.9654 171.65 73.8C171.65 75.6347 171.234 77.256 170.402 78.664C169.591 80.0507 168.471 81.1174 167.042 81.864C165.634 82.6107 164.055 82.984 162.306 82.984ZM162.306 78.248C163.351 78.248 164.237 77.864 164.962 77.096C165.709 76.328 166.082 75.2294 166.082 73.8C166.082 72.3707 165.719 71.272 164.994 70.504C164.29 69.736 163.415 69.352 162.37 69.352C161.303 69.352 160.418 69.736 159.714 70.504C159.01 71.2507 158.658 72.3494 158.658 73.8C158.658 75.2294 158.999 76.328 159.682 77.096C160.386 77.864 161.261 78.248 162.306 78.248Z" fill="black"/>
<line x1="0.514282" y1="128.228" x2="341.848" y2="128.228" stroke="black"/>
<path d="M3.33246 167.092V178.728H1.92337V167.092H3.33246ZM7.31684 173.478V178.728H5.97593V170.001H7.27138V171.364H7.38502C7.58957 170.921 7.90017 170.565 8.31684 170.296C8.73351 170.023 9.27138 169.887 9.93048 169.887C10.5214 169.887 11.0384 170.008 11.4816 170.251C11.9248 170.489 12.2695 170.853 12.5157 171.342C12.7619 171.827 12.885 172.44 12.885 173.183V178.728H11.5441V173.273C11.5441 172.588 11.3661 172.054 11.01 171.671C10.654 171.285 10.1653 171.092 9.54411 171.092C9.11608 171.092 8.73351 171.184 8.39638 171.37C8.06305 171.556 7.79979 171.827 7.60661 172.183C7.41343 172.539 7.31684 172.97 7.31684 173.478ZM18.8808 178.91C18.0626 178.91 17.358 178.717 16.7671 178.33C16.1762 177.944 15.7217 177.412 15.4035 176.734C15.0853 176.056 14.9262 175.281 14.9262 174.41C14.9262 173.523 15.0891 172.741 15.4149 172.063C15.7444 171.381 16.2027 170.849 16.7899 170.467C17.3808 170.08 18.0702 169.887 18.858 169.887C19.4717 169.887 20.0247 170.001 20.5171 170.228C21.0095 170.455 21.413 170.773 21.7274 171.183C22.0417 171.592 22.2368 172.069 22.3126 172.614H20.9717C20.8694 172.217 20.6421 171.864 20.2899 171.558C19.9414 171.247 19.4717 171.092 18.8808 171.092C18.358 171.092 17.8997 171.228 17.5058 171.501C17.1156 171.77 16.8107 172.15 16.591 172.643C16.3751 173.131 16.2671 173.705 16.2671 174.364C16.2671 175.039 16.3732 175.626 16.5853 176.126C16.8012 176.626 17.1042 177.014 17.4944 177.291C17.8883 177.567 18.3505 177.705 18.8808 177.705C19.2292 177.705 19.5455 177.645 19.8296 177.523C20.1137 177.402 20.3542 177.228 20.5512 177.001C20.7482 176.773 20.8883 176.501 20.9717 176.183H22.3126C22.2368 176.698 22.0493 177.162 21.7501 177.575C21.4546 177.984 21.0626 178.309 20.5739 178.552C20.0891 178.791 19.5247 178.91 18.8808 178.91ZM25.6137 167.092V178.728H24.2728V167.092H25.6137ZM33.5697 175.16V170.001H34.9106V178.728H33.5697V177.251H33.4788C33.2742 177.694 32.956 178.071 32.5242 178.381C32.0924 178.688 31.547 178.842 30.8879 178.842C30.3424 178.842 29.8576 178.722 29.4333 178.484C29.0091 178.241 28.6757 177.878 28.4333 177.393C28.1909 176.904 28.0697 176.289 28.0697 175.546V170.001H29.4106V175.455C29.4106 176.092 29.5886 176.599 29.9447 176.978C30.3045 177.357 30.7629 177.546 31.3197 177.546C31.653 177.546 31.992 177.461 32.3367 177.291C32.6852 177.12 32.9769 176.859 33.2117 176.506C33.4504 176.154 33.5697 175.705 33.5697 175.16ZM40.662 178.91C39.9347 178.91 39.2927 178.726 38.7359 178.359C38.1791 177.987 37.7434 177.465 37.4291 176.791C37.1147 176.112 36.9575 175.311 36.9575 174.387C36.9575 173.47 37.1147 172.675 37.4291 172.001C37.7434 171.327 38.1809 170.806 38.7416 170.438C39.3022 170.071 39.9499 169.887 40.6847 169.887C41.2529 169.887 41.7018 169.982 42.0313 170.171C42.3647 170.357 42.6184 170.569 42.7927 170.808C42.9707 171.042 43.109 171.236 43.2075 171.387H43.3211V167.092H44.662V178.728H43.3666V177.387H43.2075C43.109 177.546 42.9688 177.747 42.787 177.989C42.6052 178.228 42.3457 178.442 42.0086 178.631C41.6715 178.817 41.2226 178.91 40.662 178.91ZM40.8438 177.705C41.3817 177.705 41.8363 177.565 42.2075 177.285C42.5787 177.001 42.8609 176.609 43.0541 176.109C43.2472 175.605 43.3438 175.023 43.3438 174.364C43.3438 173.713 43.2491 173.143 43.0597 172.654C42.8703 172.162 42.59 171.779 42.2188 171.506C41.8476 171.23 41.3893 171.092 40.8438 171.092C40.2756 171.092 39.8022 171.237 39.4234 171.529C39.0484 171.817 38.7662 172.209 38.5768 172.705C38.3912 173.198 38.2984 173.751 38.2984 174.364C38.2984 174.986 38.3931 175.55 38.5825 176.058C38.7756 176.561 39.0597 176.963 39.4347 177.262C39.8135 177.558 40.2832 177.705 40.8438 177.705ZM50.9631 178.91C50.1222 178.91 49.3969 178.724 48.787 178.353C48.1809 177.978 47.7131 177.455 47.3836 176.785C47.0578 176.111 46.895 175.327 46.895 174.433C46.895 173.539 47.0578 172.751 47.3836 172.069C47.7131 171.383 48.1715 170.849 48.7586 170.467C49.3495 170.08 50.0389 169.887 50.8268 169.887C51.2813 169.887 51.7302 169.963 52.1734 170.114C52.6166 170.266 53.02 170.512 53.3836 170.853C53.7472 171.19 54.037 171.637 54.2529 172.194C54.4688 172.751 54.5768 173.436 54.5768 174.251V174.819H47.8495V173.66H53.2131C53.2131 173.167 53.1147 172.728 52.9177 172.342C52.7245 171.955 52.448 171.65 52.0881 171.427C51.7321 171.203 51.3116 171.092 50.8268 171.092C50.2927 171.092 49.8306 171.224 49.4404 171.489C49.0541 171.751 48.7567 172.092 48.5484 172.512C48.34 172.933 48.2359 173.383 48.2359 173.864V174.637C48.2359 175.296 48.3495 175.855 48.5768 176.313C48.8078 176.768 49.1279 177.114 49.537 177.353C49.9461 177.588 50.4215 177.705 50.9631 177.705C51.3154 177.705 51.6336 177.656 51.9177 177.558C52.2056 177.455 52.4537 177.304 52.662 177.103C52.8703 176.898 53.0313 176.645 53.145 176.342L54.4404 176.705C54.3041 177.145 54.0749 177.531 53.7529 177.864C53.4309 178.194 53.0332 178.452 52.5597 178.637C52.0863 178.819 51.5541 178.91 50.9631 178.91ZM62.7984 171.955L61.5938 172.296C61.5181 172.095 61.4063 171.9 61.2586 171.711C61.1147 171.518 60.9177 171.359 60.6677 171.234C60.4177 171.109 60.0976 171.046 59.7075 171.046C59.1734 171.046 58.7283 171.169 58.3722 171.416C58.02 171.658 57.8438 171.967 57.8438 172.342C57.8438 172.675 57.965 172.938 58.2075 173.131C58.4499 173.325 58.8287 173.486 59.3438 173.614L60.6393 173.933C61.4196 174.122 62.001 174.412 62.3836 174.802C62.7662 175.188 62.9575 175.686 62.9575 176.296C62.9575 176.796 62.8135 177.243 62.5256 177.637C62.2416 178.031 61.8438 178.342 61.3325 178.569C60.8211 178.796 60.2264 178.91 59.5484 178.91C58.6582 178.91 57.9215 178.717 57.3381 178.33C56.7548 177.944 56.3855 177.38 56.2302 176.637L57.5029 176.319C57.6241 176.789 57.8533 177.141 58.1904 177.376C58.5313 177.611 58.9764 177.728 59.5256 177.728C60.1506 177.728 60.6469 177.595 61.0143 177.33C61.3855 177.061 61.5711 176.739 61.5711 176.364C61.5711 176.061 61.465 175.808 61.2529 175.603C61.0408 175.395 60.715 175.239 60.2756 175.137L58.8211 174.796C58.0219 174.607 57.4347 174.313 57.0597 173.916C56.6885 173.514 56.5029 173.012 56.5029 172.41C56.5029 171.917 56.6412 171.482 56.9177 171.103C57.198 170.724 57.5787 170.427 58.0597 170.211C58.5446 169.995 59.0938 169.887 59.7075 169.887C60.5711 169.887 61.2491 170.077 61.7416 170.455C62.2378 170.834 62.59 171.334 62.7984 171.955ZM65.9532 178.819C65.6729 178.819 65.4324 178.719 65.2316 178.518C65.0309 178.317 64.9305 178.077 64.9305 177.796C64.9305 177.516 65.0309 177.275 65.2316 177.075C65.4324 176.874 65.6729 176.773 65.9532 176.773C66.2335 176.773 66.474 176.874 66.6748 177.075C66.8756 177.275 66.9759 177.516 66.9759 177.796C66.9759 177.982 66.9286 178.152 66.8339 178.308C66.743 178.463 66.6199 178.588 66.4646 178.683C66.3131 178.773 66.1426 178.819 65.9532 178.819ZM65.9532 172.342C65.6729 172.342 65.4324 172.241 65.2316 172.041C65.0309 171.84 64.9305 171.599 64.9305 171.319C64.9305 171.039 65.0309 170.798 65.2316 170.597C65.4324 170.397 65.6729 170.296 65.9532 170.296C66.2335 170.296 66.474 170.397 66.6748 170.597C66.8756 170.798 66.9759 171.039 66.9759 171.319C66.9759 171.505 66.9286 171.675 66.8339 171.83C66.743 171.986 66.6199 172.111 66.4646 172.205C66.3131 172.296 66.1426 172.342 65.9532 172.342Z" fill="black"/>
<path d="M19.5776 215.526C19.6769 215.526 19.753 215.556 19.8315 215.635C19.9101 215.714 19.9409 215.792 19.9409 215.893C19.9409 215.994 19.9106 216.072 19.8325 216.152L10.2144 225.763C10.1322 225.845 10.0562 225.874 9.96338 225.874C9.87074 225.874 9.79563 225.845 9.71533 225.765L5.18018 221.23C5.1032 221.152 5.07513 221.077 5.07764 220.98C5.08047 220.874 5.11521 220.792 5.19678 220.71C5.27584 220.632 5.35318 220.601 5.45459 220.601C5.53101 220.601 5.59419 220.618 5.65479 220.661L5.71533 220.711L9.60986 224.625L9.96338 224.98L10.3179 224.625L19.3101 215.639C19.3951 215.557 19.4769 215.526 19.5776 215.526Z" fill="black" stroke="black"/>
<path d="M42.4006 226.728H40.9234L45.1961 215.092H46.6506L50.9234 226.728H49.4461L45.9688 216.933H45.8779L42.4006 226.728ZM42.9461 222.183H48.9006V223.433H42.9461V222.183ZM55.8495 226.91C55.1222 226.91 54.4802 226.726 53.9234 226.359C53.3666 225.987 52.9309 225.465 52.6166 224.791C52.3022 224.112 52.145 223.311 52.145 222.387C52.145 221.47 52.3022 220.675 52.6166 220.001C52.9309 219.327 53.3684 218.806 53.9291 218.438C54.4897 218.071 55.1374 217.887 55.8722 217.887C56.4404 217.887 56.8893 217.982 57.2188 218.171C57.5522 218.357 57.8059 218.569 57.9802 218.808C58.1582 219.042 58.2965 219.236 58.395 219.387H58.5086V215.092H59.8495V226.728H58.5541V225.387H58.395C58.2965 225.546 58.1563 225.747 57.9745 225.989C57.7927 226.228 57.5332 226.442 57.1961 226.631C56.859 226.817 56.4101 226.91 55.8495 226.91ZM56.0313 225.705C56.5692 225.705 57.0238 225.565 57.395 225.285C57.7662 225.001 58.0484 224.609 58.2416 224.109C58.4347 223.605 58.5313 223.023 58.5313 222.364C58.5313 221.713 58.4366 221.143 58.2472 220.654C58.0578 220.162 57.7775 219.779 57.4063 219.506C57.0351 219.23 56.5768 219.092 56.0313 219.092C55.4631 219.092 54.9897 219.237 54.6109 219.529C54.2359 219.817 53.9537 220.209 53.7643 220.705C53.5787 221.198 53.4859 221.751 53.4859 222.364C53.4859 222.986 53.5806 223.55 53.77 224.058C53.9631 224.561 54.2472 224.963 54.6222 225.262C55.001 225.558 55.4707 225.705 56.0313 225.705ZM69.6279 218.001L66.4006 226.728H65.037L61.8097 218.001H63.2643L65.6734 224.955H65.7643L68.1734 218.001H69.6279ZM73.7004 226.933C73.1473 226.933 72.6454 226.828 72.1947 226.62C71.7439 226.408 71.386 226.103 71.1208 225.705C70.8557 225.304 70.7231 224.819 70.7231 224.251C70.7231 223.751 70.8216 223.345 71.0185 223.035C71.2155 222.72 71.4788 222.474 71.8083 222.296C72.1379 222.118 72.5015 221.986 72.8992 221.898C73.3007 221.808 73.7041 221.736 74.1095 221.683C74.6398 221.614 75.0697 221.563 75.3992 221.529C75.7326 221.491 75.975 221.429 76.1265 221.342C76.2818 221.255 76.3595 221.103 76.3595 220.887V220.842C76.3595 220.281 76.206 219.845 75.8992 219.535C75.5962 219.224 75.136 219.069 74.5185 219.069C73.8784 219.069 73.3765 219.209 73.0129 219.489C72.6492 219.77 72.3935 220.069 72.2458 220.387L70.9731 219.933C71.2004 219.402 71.5034 218.989 71.8822 218.694C72.2648 218.395 72.6814 218.186 73.1322 218.069C73.5867 217.948 74.0337 217.887 74.4731 217.887C74.7534 217.887 75.0754 217.921 75.439 217.989C75.8064 218.054 76.1606 218.188 76.5015 218.393C76.8462 218.597 77.1322 218.906 77.3595 219.319C77.5867 219.732 77.7004 220.285 77.7004 220.978V226.728H76.3595V225.546H76.2913C76.2004 225.736 76.0488 225.938 75.8367 226.154C75.6246 226.37 75.3424 226.554 74.9901 226.705C74.6379 226.857 74.2079 226.933 73.7004 226.933ZM73.9049 225.728C74.4352 225.728 74.8822 225.624 75.2458 225.416C75.6132 225.207 75.8898 224.938 76.0754 224.609C76.2648 224.279 76.3595 223.933 76.3595 223.569V222.342C76.3026 222.41 76.1776 222.472 75.9845 222.529C75.7951 222.582 75.5754 222.63 75.3254 222.671C75.0791 222.709 74.8386 222.743 74.6038 222.773C74.3727 222.8 74.1852 222.823 74.0413 222.842C73.6928 222.887 73.367 222.961 73.064 223.063C72.7648 223.162 72.5223 223.311 72.3367 223.512C72.1549 223.709 72.064 223.978 72.064 224.319C72.064 224.785 72.2363 225.137 72.581 225.376C72.9295 225.611 73.3708 225.728 73.9049 225.728ZM81.4887 221.478V226.728H80.1478V218.001H81.4433V219.364H81.5569C81.7614 218.921 82.072 218.565 82.4887 218.296C82.9054 218.023 83.4433 217.887 84.1024 217.887C84.6933 217.887 85.2103 218.008 85.6535 218.251C86.0967 218.489 86.4414 218.853 86.6876 219.342C86.9338 219.827 87.0569 220.44 87.0569 221.183V226.728H85.716V221.273C85.716 220.588 85.538 220.054 85.1819 219.671C84.8258 219.285 84.3372 219.092 83.716 219.092C83.288 219.092 82.9054 219.184 82.5683 219.37C82.2349 219.556 81.9717 219.827 81.7785 220.183C81.5853 220.539 81.4887 220.97 81.4887 221.478ZM93.0526 226.91C92.2345 226.91 91.5299 226.717 90.939 226.33C90.3481 225.944 89.8935 225.412 89.5754 224.734C89.2572 224.056 89.0981 223.281 89.0981 222.41C89.0981 221.523 89.261 220.741 89.5867 220.063C89.9163 219.381 90.3746 218.849 90.9617 218.467C91.5526 218.08 92.242 217.887 93.0299 217.887C93.6435 217.887 94.1966 218.001 94.689 218.228C95.1814 218.455 95.5848 218.773 95.8992 219.183C96.2136 219.592 96.4087 220.069 96.4845 220.614H95.1435C95.0413 220.217 94.814 219.864 94.4617 219.558C94.1132 219.247 93.6435 219.092 93.0526 219.092C92.5299 219.092 92.0716 219.228 91.6776 219.501C91.2875 219.77 90.9826 220.15 90.7629 220.643C90.547 221.131 90.439 221.705 90.439 222.364C90.439 223.039 90.5451 223.626 90.7572 224.126C90.9731 224.626 91.2761 225.014 91.6663 225.291C92.0602 225.567 92.5223 225.705 93.0526 225.705C93.4011 225.705 93.7174 225.645 94.0015 225.523C94.2856 225.402 94.5261 225.228 94.7231 225.001C94.9201 224.773 95.0602 224.501 95.1435 224.183H96.4845C96.4087 224.698 96.2212 225.162 95.922 225.575C95.6265 225.984 95.2345 226.309 94.7458 226.552C94.261 226.791 93.6966 226.91 93.0526 226.91ZM102.104 226.91C101.263 226.91 100.537 226.724 99.9276 226.353C99.3216 225.978 98.8538 225.455 98.5242 224.785C98.1985 224.111 98.0356 223.327 98.0356 222.433C98.0356 221.539 98.1985 220.751 98.5242 220.069C98.8538 219.383 99.3121 218.849 99.8992 218.467C100.49 218.08 101.18 217.887 101.967 217.887C102.422 217.887 102.871 217.963 103.314 218.114C103.757 218.266 104.161 218.512 104.524 218.853C104.888 219.19 105.178 219.637 105.394 220.194C105.609 220.751 105.717 221.436 105.717 222.251V222.819H98.9901V221.66H104.354C104.354 221.167 104.255 220.728 104.058 220.342C103.865 219.955 103.589 219.65 103.229 219.427C102.873 219.203 102.452 219.092 101.967 219.092C101.433 219.092 100.971 219.224 100.581 219.489C100.195 219.751 99.8973 220.092 99.689 220.512C99.4807 220.933 99.3765 221.383 99.3765 221.864V222.637C99.3765 223.296 99.4901 223.855 99.7174 224.313C99.9485 224.768 100.269 225.114 100.678 225.353C101.087 225.588 101.562 225.705 102.104 225.705C102.456 225.705 102.774 225.656 103.058 225.558C103.346 225.455 103.594 225.304 103.803 225.103C104.011 224.898 104.172 224.645 104.286 224.342L105.581 224.705C105.445 225.145 105.216 225.531 104.894 225.864C104.572 226.194 104.174 226.452 103.7 226.637C103.227 226.819 102.695 226.91 102.104 226.91ZM111.053 226.91C110.325 226.91 109.683 226.726 109.126 226.359C108.57 225.987 108.134 225.465 107.82 224.791C107.505 224.112 107.348 223.311 107.348 222.387C107.348 221.47 107.505 220.675 107.82 220.001C108.134 219.327 108.572 218.806 109.132 218.438C109.693 218.071 110.341 217.887 111.075 217.887C111.644 217.887 112.092 217.982 112.422 218.171C112.755 218.357 113.009 218.569 113.183 218.808C113.361 219.042 113.5 219.236 113.598 219.387H113.712V215.092H115.053V226.728H113.757V225.387H113.598C113.5 225.546 113.359 225.747 113.178 225.989C112.996 226.228 112.736 226.442 112.399 226.631C112.062 226.817 111.613 226.91 111.053 226.91ZM111.234 225.705C111.772 225.705 112.227 225.565 112.598 225.285C112.969 225.001 113.251 224.609 113.445 224.109C113.638 223.605 113.734 223.023 113.734 222.364C113.734 221.713 113.64 221.143 113.45 220.654C113.261 220.162 112.981 219.779 112.609 219.506C112.238 219.23 111.78 219.092 111.234 219.092C110.666 219.092 110.193 219.237 109.814 219.529C109.439 219.817 109.157 220.209 108.967 220.705C108.782 221.198 108.689 221.751 108.689 222.364C108.689 222.986 108.784 223.55 108.973 224.058C109.166 224.561 109.45 224.963 109.825 225.262C110.204 225.558 110.674 225.705 111.234 225.705ZM125.99 218.001V219.137H121.467V218.001H125.99ZM122.786 215.91H124.126V224.228C124.126 224.607 124.181 224.891 124.291 225.08C124.405 225.266 124.549 225.391 124.723 225.455C124.901 225.516 125.089 225.546 125.286 225.546C125.433 225.546 125.555 225.539 125.649 225.523C125.744 225.505 125.82 225.489 125.876 225.478L126.149 226.683C126.058 226.717 125.931 226.751 125.769 226.785C125.606 226.823 125.399 226.842 125.149 226.842C124.77 226.842 124.399 226.76 124.036 226.597C123.676 226.434 123.376 226.186 123.138 225.853C122.903 225.52 122.786 225.099 122.786 224.592V215.91ZM130.575 226.933C130.022 226.933 129.52 226.828 129.07 226.62C128.619 226.408 128.261 226.103 127.996 225.705C127.731 225.304 127.598 224.819 127.598 224.251C127.598 223.751 127.697 223.345 127.894 223.035C128.091 222.72 128.354 222.474 128.683 222.296C129.013 222.118 129.376 221.986 129.774 221.898C130.176 221.808 130.579 221.736 130.984 221.683C131.515 221.614 131.945 221.563 132.274 221.529C132.608 221.491 132.85 221.429 133.001 221.342C133.157 221.255 133.234 221.103 133.234 220.887V220.842C133.234 220.281 133.081 219.845 132.774 219.535C132.471 219.224 132.011 219.069 131.394 219.069C130.753 219.069 130.251 219.209 129.888 219.489C129.524 219.77 129.269 220.069 129.121 220.387L127.848 219.933C128.075 219.402 128.378 218.989 128.757 218.694C129.14 218.395 129.556 218.186 130.007 218.069C130.462 217.948 130.909 217.887 131.348 217.887C131.628 217.887 131.95 217.921 132.314 217.989C132.681 218.054 133.036 218.188 133.376 218.393C133.721 218.597 134.007 218.906 134.234 219.319C134.462 219.732 134.575 220.285 134.575 220.978V226.728H133.234V225.546H133.166C133.075 225.736 132.924 225.938 132.712 226.154C132.5 226.37 132.217 226.554 131.865 226.705C131.513 226.857 131.083 226.933 130.575 226.933ZM130.78 225.728C131.31 225.728 131.757 225.624 132.121 225.416C132.488 225.207 132.765 224.938 132.95 224.609C133.14 224.279 133.234 223.933 133.234 223.569V222.342C133.178 222.41 133.053 222.472 132.859 222.529C132.67 222.582 132.45 222.63 132.2 222.671C131.954 222.709 131.714 222.743 131.479 222.773C131.248 222.8 131.06 222.823 130.916 222.842C130.568 222.887 130.242 222.961 129.939 223.063C129.64 223.162 129.397 223.311 129.212 223.512C129.03 223.709 128.939 223.978 128.939 224.319C128.939 224.785 129.111 225.137 129.456 225.376C129.805 225.611 130.246 225.728 130.78 225.728ZM143.205 219.955L142 220.296C141.924 220.095 141.813 219.9 141.665 219.711C141.521 219.518 141.324 219.359 141.074 219.234C140.824 219.109 140.504 219.046 140.114 219.046C139.58 219.046 139.135 219.169 138.778 219.416C138.426 219.658 138.25 219.967 138.25 220.342C138.25 220.675 138.371 220.938 138.614 221.131C138.856 221.325 139.235 221.486 139.75 221.614L141.046 221.933C141.826 222.122 142.407 222.412 142.79 222.802C143.172 223.188 143.364 223.686 143.364 224.296C143.364 224.796 143.22 225.243 142.932 225.637C142.648 226.031 142.25 226.342 141.739 226.569C141.227 226.796 140.633 226.91 139.955 226.91C139.064 226.91 138.328 226.717 137.744 226.33C137.161 225.944 136.792 225.38 136.636 224.637L137.909 224.319C138.03 224.789 138.26 225.141 138.597 225.376C138.938 225.611 139.383 225.728 139.932 225.728C140.557 225.728 141.053 225.595 141.421 225.33C141.792 225.061 141.977 224.739 141.977 224.364C141.977 224.061 141.871 223.808 141.659 223.603C141.447 223.395 141.121 223.239 140.682 223.137L139.227 222.796C138.428 222.607 137.841 222.313 137.466 221.916C137.095 221.514 136.909 221.012 136.909 220.41C136.909 219.917 137.047 219.482 137.324 219.103C137.604 218.724 137.985 218.427 138.466 218.211C138.951 217.995 139.5 217.887 140.114 217.887C140.977 217.887 141.655 218.077 142.148 218.455C142.644 218.834 142.996 219.334 143.205 219.955ZM146.632 223.546L146.609 221.887H146.882L150.7 218.001H152.359L148.291 222.114H148.178L146.632 223.546ZM145.382 226.728V215.092H146.723V226.728H145.382ZM150.928 226.728L147.519 222.41L148.473 221.478L152.632 226.728H150.928ZM158.585 226.728V218.001H159.881V219.364H159.994C160.176 218.898 160.47 218.537 160.875 218.279C161.28 218.018 161.767 217.887 162.335 217.887C162.911 217.887 163.39 218.018 163.773 218.279C164.159 218.537 164.46 218.898 164.676 219.364H164.767C164.991 218.914 165.326 218.556 165.773 218.291C166.22 218.022 166.756 217.887 167.381 217.887C168.161 217.887 168.799 218.131 169.296 218.62C169.792 219.105 170.04 219.861 170.04 220.887V226.728H168.699V220.887C168.699 220.243 168.523 219.783 168.171 219.506C167.818 219.23 167.403 219.092 166.926 219.092C166.313 219.092 165.837 219.277 165.5 219.648C165.163 220.016 164.994 220.482 164.994 221.046V226.728H163.631V220.751C163.631 220.255 163.47 219.855 163.148 219.552C162.826 219.245 162.411 219.092 161.903 219.092C161.555 219.092 161.229 219.184 160.926 219.37C160.627 219.556 160.385 219.813 160.199 220.143C160.017 220.469 159.926 220.845 159.926 221.273V226.728H158.585ZM175.06 226.933C174.507 226.933 174.005 226.828 173.554 226.62C173.103 226.408 172.745 226.103 172.48 225.705C172.215 225.304 172.082 224.819 172.082 224.251C172.082 223.751 172.181 223.345 172.378 223.035C172.575 222.72 172.838 222.474 173.168 222.296C173.497 222.118 173.861 221.986 174.259 221.898C174.66 221.808 175.064 221.736 175.469 221.683C175.999 221.614 176.429 221.563 176.759 221.529C177.092 221.491 177.334 221.429 177.486 221.342C177.641 221.255 177.719 221.103 177.719 220.887V220.842C177.719 220.281 177.565 219.845 177.259 219.535C176.956 219.224 176.495 219.069 175.878 219.069C175.238 219.069 174.736 219.209 174.372 219.489C174.009 219.77 173.753 220.069 173.605 220.387L172.332 219.933C172.56 219.402 172.863 218.989 173.242 218.694C173.624 218.395 174.041 218.186 174.492 218.069C174.946 217.948 175.393 217.887 175.832 217.887C176.113 217.887 176.435 217.921 176.798 217.989C177.166 218.054 177.52 218.188 177.861 218.393C178.206 218.597 178.492 218.906 178.719 219.319C178.946 219.732 179.06 220.285 179.06 220.978V226.728H177.719V225.546H177.651C177.56 225.736 177.408 225.938 177.196 226.154C176.984 226.37 176.702 226.554 176.35 226.705C175.997 226.857 175.567 226.933 175.06 226.933ZM175.264 225.728C175.795 225.728 176.242 225.624 176.605 225.416C176.973 225.207 177.249 224.938 177.435 224.609C177.624 224.279 177.719 223.933 177.719 223.569V222.342C177.662 222.41 177.537 222.472 177.344 222.529C177.154 222.582 176.935 222.63 176.685 222.671C176.439 222.709 176.198 222.743 175.963 222.773C175.732 222.8 175.545 222.823 175.401 222.842C175.052 222.887 174.726 222.961 174.423 223.063C174.124 223.162 173.882 223.311 173.696 223.512C173.514 223.709 173.423 223.978 173.423 224.319C173.423 224.785 173.596 225.137 173.94 225.376C174.289 225.611 174.73 225.728 175.264 225.728ZM182.848 221.478V226.728H181.507V218.001H182.803V219.364H182.916C183.121 218.921 183.431 218.565 183.848 218.296C184.265 218.023 184.803 217.887 185.462 217.887C186.053 217.887 186.57 218.008 187.013 218.251C187.456 218.489 187.801 218.853 188.047 219.342C188.293 219.827 188.416 220.44 188.416 221.183V226.728H187.075V221.273C187.075 220.588 186.897 220.054 186.541 219.671C186.185 219.285 185.697 219.092 185.075 219.092C184.647 219.092 184.265 219.184 183.928 219.37C183.594 219.556 183.331 219.827 183.138 220.183C182.945 220.539 182.848 220.97 182.848 221.478ZM193.435 226.933C192.882 226.933 192.38 226.828 191.929 226.62C191.478 226.408 191.12 226.103 190.855 225.705C190.59 225.304 190.457 224.819 190.457 224.251C190.457 223.751 190.556 223.345 190.753 223.035C190.95 222.72 191.213 222.474 191.543 222.296C191.872 222.118 192.236 221.986 192.634 221.898C193.035 221.808 193.439 221.736 193.844 221.683C194.374 221.614 194.804 221.563 195.134 221.529C195.467 221.491 195.709 221.429 195.861 221.342C196.016 221.255 196.094 221.103 196.094 220.887V220.842C196.094 220.281 195.94 219.845 195.634 219.535C195.331 219.224 194.87 219.069 194.253 219.069C193.613 219.069 193.111 219.209 192.747 219.489C192.384 219.77 192.128 220.069 191.98 220.387L190.707 219.933C190.935 219.402 191.238 218.989 191.617 218.694C191.999 218.395 192.416 218.186 192.867 218.069C193.321 217.948 193.768 217.887 194.207 217.887C194.488 217.887 194.81 217.921 195.173 217.989C195.541 218.054 195.895 218.188 196.236 218.393C196.581 218.597 196.867 218.906 197.094 219.319C197.321 219.732 197.435 220.285 197.435 220.978V226.728H196.094V225.546H196.026C195.935 225.736 195.783 225.938 195.571 226.154C195.359 226.37 195.077 226.554 194.725 226.705C194.372 226.857 193.942 226.933 193.435 226.933ZM193.639 225.728C194.17 225.728 194.617 225.624 194.98 225.416C195.348 225.207 195.624 224.938 195.81 224.609C195.999 224.279 196.094 223.933 196.094 223.569V222.342C196.037 222.41 195.912 222.472 195.719 222.529C195.529 222.582 195.31 222.63 195.06 222.671C194.814 222.709 194.573 222.743 194.338 222.773C194.107 222.8 193.92 222.823 193.776 222.842C193.427 222.887 193.101 222.961 192.798 223.063C192.499 223.162 192.257 223.311 192.071 223.512C191.889 223.709 191.798 223.978 191.798 224.319C191.798 224.785 191.971 225.137 192.315 225.376C192.664 225.611 193.105 225.728 193.639 225.728ZM203.405 230.183C202.757 230.183 202.2 230.099 201.734 229.933C201.269 229.77 200.88 229.554 200.57 229.285C200.263 229.02 200.019 228.736 199.837 228.433L200.905 227.683C201.026 227.842 201.18 228.023 201.365 228.228C201.551 228.436 201.805 228.616 202.126 228.768C202.452 228.923 202.878 229.001 203.405 229.001C204.109 229.001 204.691 228.83 205.149 228.489C205.608 228.148 205.837 227.614 205.837 226.887V225.114H205.723C205.625 225.273 205.484 225.47 205.303 225.705C205.125 225.936 204.867 226.143 204.53 226.325C204.197 226.503 203.746 226.592 203.178 226.592C202.473 226.592 201.841 226.425 201.28 226.092C200.723 225.758 200.282 225.273 199.956 224.637C199.634 224.001 199.473 223.228 199.473 222.319C199.473 221.425 199.63 220.647 199.945 219.984C200.259 219.317 200.697 218.802 201.257 218.438C201.818 218.071 202.466 217.887 203.2 217.887C203.769 217.887 204.219 217.982 204.553 218.171C204.89 218.357 205.147 218.569 205.325 218.808C205.507 219.042 205.647 219.236 205.746 219.387H205.882V218.001H207.178V226.978C207.178 227.728 207.007 228.338 206.666 228.808C206.329 229.281 205.875 229.628 205.303 229.847C204.734 230.071 204.102 230.183 203.405 230.183ZM203.359 225.387C203.897 225.387 204.352 225.264 204.723 225.018C205.094 224.772 205.376 224.417 205.57 223.955C205.763 223.493 205.859 222.94 205.859 222.296C205.859 221.667 205.765 221.112 205.575 220.631C205.386 220.15 205.106 219.773 204.734 219.501C204.363 219.228 203.905 219.092 203.359 219.092C202.791 219.092 202.318 219.236 201.939 219.523C201.564 219.811 201.282 220.198 201.092 220.683C200.907 221.167 200.814 221.705 200.814 222.296C200.814 222.902 200.909 223.438 201.098 223.904C201.291 224.366 201.575 224.73 201.95 224.995C202.329 225.256 202.799 225.387 203.359 225.387ZM213.291 226.91C212.45 226.91 211.725 226.724 211.115 226.353C210.509 225.978 210.041 225.455 209.712 224.785C209.386 224.111 209.223 223.327 209.223 222.433C209.223 221.539 209.386 220.751 209.712 220.069C210.041 219.383 210.5 218.849 211.087 218.467C211.678 218.08 212.367 217.887 213.155 217.887C213.609 217.887 214.058 217.963 214.501 218.114C214.945 218.266 215.348 218.512 215.712 218.853C216.075 219.19 216.365 219.637 216.581 220.194C216.797 220.751 216.905 221.436 216.905 222.251V222.819H210.178V221.66H215.541C215.541 221.167 215.443 220.728 215.246 220.342C215.053 219.955 214.776 219.65 214.416 219.427C214.06 219.203 213.64 219.092 213.155 219.092C212.621 219.092 212.159 219.224 211.769 219.489C211.382 219.751 211.085 220.092 210.876 220.512C210.668 220.933 210.564 221.383 210.564 221.864V222.637C210.564 223.296 210.678 223.855 210.905 224.313C211.136 224.768 211.456 225.114 211.865 225.353C212.274 225.588 212.75 225.705 213.291 225.705C213.644 225.705 213.962 225.656 214.246 225.558C214.534 225.455 214.782 225.304 214.99 225.103C215.198 224.898 215.359 224.645 215.473 224.342L216.769 224.705C216.632 225.145 216.403 225.531 216.081 225.864C215.759 226.194 215.361 226.452 214.888 226.637C214.414 226.819 213.882 226.91 213.291 226.91ZM218.945 226.728V218.001H220.24V219.364H220.354C220.536 218.898 220.829 218.537 221.234 218.279C221.64 218.018 222.126 217.887 222.695 217.887C223.27 217.887 223.75 218.018 224.132 218.279C224.519 218.537 224.82 218.898 225.036 219.364H225.126C225.35 218.914 225.685 218.556 226.132 218.291C226.579 218.022 227.115 217.887 227.74 217.887C228.52 217.887 229.159 218.131 229.655 218.62C230.151 219.105 230.399 219.861 230.399 220.887V226.728H229.058V220.887C229.058 220.243 228.882 219.783 228.53 219.506C228.178 219.23 227.763 219.092 227.286 219.092C226.672 219.092 226.197 219.277 225.859 219.648C225.522 220.016 225.354 220.482 225.354 221.046V226.728H223.99V220.751C223.99 220.255 223.829 219.855 223.507 219.552C223.185 219.245 222.77 219.092 222.263 219.092C221.914 219.092 221.589 219.184 221.286 219.37C220.986 219.556 220.744 219.813 220.558 220.143C220.376 220.469 220.286 220.845 220.286 221.273V226.728H218.945ZM236.51 226.91C235.669 226.91 234.944 226.724 234.334 226.353C233.728 225.978 233.26 225.455 232.93 224.785C232.605 224.111 232.442 223.327 232.442 222.433C232.442 221.539 232.605 220.751 232.93 220.069C233.26 219.383 233.718 218.849 234.305 218.467C234.896 218.08 235.586 217.887 236.374 217.887C236.828 217.887 237.277 217.963 237.72 218.114C238.163 218.266 238.567 218.512 238.93 218.853C239.294 219.19 239.584 219.637 239.8 220.194C240.016 220.751 240.124 221.436 240.124 222.251V222.819H233.396V221.66H238.76C238.76 221.167 238.662 220.728 238.465 220.342C238.271 219.955 237.995 219.65 237.635 219.427C237.279 219.203 236.859 219.092 236.374 219.092C235.84 219.092 235.377 219.224 234.987 219.489C234.601 219.751 234.304 220.092 234.095 220.512C233.887 220.933 233.783 221.383 233.783 221.864V222.637C233.783 223.296 233.896 223.855 234.124 224.313C234.355 224.768 234.675 225.114 235.084 225.353C235.493 225.588 235.968 225.705 236.51 225.705C236.862 225.705 237.18 225.656 237.465 225.558C237.752 225.455 238.001 225.304 238.209 225.103C238.417 224.898 238.578 224.645 238.692 224.342L239.987 224.705C239.851 225.145 239.622 225.531 239.3 225.864C238.978 226.194 238.58 226.452 238.107 226.637C237.633 226.819 237.101 226.91 236.51 226.91ZM243.504 221.478V226.728H242.163V218.001H243.459V219.364H243.573C243.777 218.921 244.088 218.565 244.504 218.296C244.921 218.023 245.459 217.887 246.118 217.887C246.709 217.887 247.226 218.008 247.669 218.251C248.112 218.489 248.457 218.853 248.703 219.342C248.949 219.827 249.073 220.44 249.073 221.183V226.728H247.732V221.273C247.732 220.588 247.554 220.054 247.198 219.671C246.841 219.285 246.353 219.092 245.732 219.092C245.304 219.092 244.921 219.184 244.584 219.37C244.251 219.556 243.987 219.827 243.794 220.183C243.601 220.539 243.504 220.97 243.504 221.478ZM255.318 218.001V219.137H250.796V218.001H255.318ZM252.114 215.91H253.455V224.228C253.455 224.607 253.51 224.891 253.619 225.08C253.733 225.266 253.877 225.391 254.051 225.455C254.229 225.516 254.417 225.546 254.614 225.546C254.761 225.546 254.883 225.539 254.977 225.523C255.072 225.505 255.148 225.489 255.205 225.478L255.477 226.683C255.386 226.717 255.26 226.751 255.097 226.785C254.934 226.823 254.727 226.842 254.477 226.842C254.099 226.842 253.727 226.76 253.364 226.597C253.004 226.434 252.705 226.186 252.466 225.853C252.231 225.52 252.114 225.099 252.114 224.592V215.91Z" fill="black"/>
<path d="M19.5776 255.526C19.6769 255.526 19.753 255.556 19.8315 255.635C19.9101 255.714 19.9409 255.792 19.9409 255.893C19.9409 255.994 19.9106 256.072 19.8325 256.152L10.2144 265.763C10.1322 265.845 10.0562 265.874 9.96338 265.874C9.87074 265.874 9.79563 265.845 9.71533 265.765L5.18018 261.23C5.1032 261.152 5.07513 261.077 5.07764 260.98C5.08047 260.874 5.11521 260.792 5.19678 260.71C5.27584 260.632 5.35318 260.601 5.45459 260.601C5.53101 260.601 5.59419 260.618 5.65479 260.661L5.71533 260.711L9.60986 264.625L9.96338 264.98L10.3179 264.625L19.3101 255.639C19.3951 255.557 19.4769 255.526 19.5776 255.526Z" fill="black" stroke="black"/>
<path d="M41.287 256.342V255.092H50.0143V256.342H46.3552V266.728H44.9461V256.342H41.287ZM54.4006 266.91C53.5597 266.91 52.8344 266.724 52.2245 266.353C51.6184 265.978 51.1506 265.455 50.8211 264.785C50.4953 264.111 50.3325 263.327 50.3325 262.433C50.3325 261.539 50.4953 260.751 50.8211 260.069C51.1506 259.383 51.609 258.849 52.1961 258.467C52.787 258.08 53.4764 257.887 54.2643 257.887C54.7188 257.887 55.1677 257.963 55.6109 258.114C56.0541 258.266 56.4575 258.512 56.8211 258.853C57.1847 259.19 57.4745 259.637 57.6904 260.194C57.9063 260.751 58.0143 261.436 58.0143 262.251V262.819H51.287V261.66H56.6506C56.6506 261.167 56.5522 260.728 56.3552 260.342C56.162 259.955 55.8855 259.65 55.5256 259.427C55.1696 259.203 54.7491 259.092 54.2643 259.092C53.7302 259.092 53.2681 259.224 52.8779 259.489C52.4916 259.751 52.1942 260.092 51.9859 260.512C51.7775 260.933 51.6734 261.383 51.6734 261.864V262.637C51.6734 263.296 51.787 263.855 52.0143 264.313C52.2453 264.768 52.5654 265.114 52.9745 265.353C53.3836 265.588 53.859 265.705 54.4006 265.705C54.7529 265.705 55.0711 265.656 55.3552 265.558C55.6431 265.455 55.8912 265.304 56.0995 265.103C56.3078 264.898 56.4688 264.645 56.5825 264.342L57.8779 264.705C57.7416 265.145 57.5124 265.531 57.1904 265.864C56.8684 266.194 56.4707 266.452 55.9972 266.637C55.5238 266.819 54.9916 266.91 54.4006 266.91ZM62.6222 266.933C62.0692 266.933 61.5673 266.828 61.1166 266.62C60.6658 266.408 60.3078 266.103 60.0427 265.705C59.7775 265.304 59.645 264.819 59.645 264.251C59.645 263.751 59.7434 263.345 59.9404 263.035C60.1374 262.72 60.4006 262.474 60.7302 262.296C61.0597 262.118 61.4234 261.986 61.8211 261.898C62.2226 261.808 62.626 261.736 63.0313 261.683C63.5616 261.614 63.9916 261.563 64.3211 261.529C64.6544 261.491 64.8969 261.429 65.0484 261.342C65.2037 261.255 65.2813 261.103 65.2813 260.887V260.842C65.2813 260.281 65.1279 259.845 64.8211 259.535C64.5181 259.224 64.0578 259.069 63.4404 259.069C62.8003 259.069 62.2984 259.209 61.9347 259.489C61.5711 259.77 61.3154 260.069 61.1677 260.387L59.895 259.933C60.1222 259.402 60.4253 258.989 60.8041 258.694C61.1866 258.395 61.6033 258.186 62.0541 258.069C62.5086 257.948 62.9556 257.887 63.395 257.887C63.6753 257.887 63.9972 257.921 64.3609 257.989C64.7283 258.054 65.0825 258.188 65.4234 258.393C65.7681 258.597 66.0541 258.906 66.2813 259.319C66.5086 259.732 66.6222 260.285 66.6222 260.978V266.728H65.2813V265.546H65.2131C65.1222 265.736 64.9707 265.938 64.7586 266.154C64.5465 266.37 64.2643 266.554 63.912 266.705C63.5597 266.857 63.1298 266.933 62.6222 266.933ZM62.8268 265.728C63.3571 265.728 63.8041 265.624 64.1677 265.416C64.5351 265.207 64.8116 264.938 64.9972 264.609C65.1866 264.279 65.2813 263.933 65.2813 263.569V262.342C65.2245 262.41 65.0995 262.472 64.9063 262.529C64.7169 262.582 64.4972 262.63 64.2472 262.671C64.001 262.709 63.7605 262.743 63.5256 262.773C63.2946 262.8 63.1071 262.823 62.9631 262.842C62.6147 262.887 62.2889 262.961 61.9859 263.063C61.6866 263.162 61.4442 263.311 61.2586 263.512C61.0768 263.709 60.9859 263.978 60.9859 264.319C60.9859 264.785 61.1582 265.137 61.5029 265.376C61.8514 265.611 62.2927 265.728 62.8268 265.728ZM69.0697 266.728V258.001H70.3651V259.364H70.4788C70.6606 258.898 70.9541 258.537 71.3595 258.279C71.7648 258.018 72.2515 257.887 72.8197 257.887C73.3954 257.887 73.8746 258.018 74.2572 258.279C74.6435 258.537 74.9447 258.898 75.1606 259.364H75.2515C75.475 258.914 75.8102 258.556 76.2572 258.291C76.7042 258.022 77.2401 257.887 77.8651 257.887C78.6454 257.887 79.2837 258.131 79.7799 258.62C80.2761 259.105 80.5242 259.861 80.5242 260.887V266.728H79.1833V260.887C79.1833 260.243 79.0072 259.783 78.6549 259.506C78.3026 259.23 77.8879 259.092 77.4106 259.092C76.797 259.092 76.3216 259.277 75.9845 259.648C75.6473 260.016 75.4788 260.482 75.4788 261.046V266.728H74.1151V260.751C74.1151 260.255 73.9541 259.855 73.6322 259.552C73.3102 259.245 72.8954 259.092 72.3879 259.092C72.0394 259.092 71.7136 259.184 71.4106 259.37C71.1113 259.556 70.8689 259.813 70.6833 260.143C70.5015 260.469 70.4106 260.845 70.4106 261.273V266.728H69.0697ZM91.0214 266.91C90.2032 266.91 89.4987 266.717 88.9077 266.33C88.3168 265.944 87.8623 265.412 87.5441 264.734C87.2259 264.056 87.0668 263.281 87.0668 262.41C87.0668 261.523 87.2297 260.741 87.5555 260.063C87.885 259.381 88.3434 258.849 88.9305 258.467C89.5214 258.08 90.2108 257.887 90.9987 257.887C91.6123 257.887 92.1653 258.001 92.6577 258.228C93.1502 258.455 93.5536 258.773 93.868 259.183C94.1824 259.592 94.3774 260.069 94.4532 260.614H93.1123C93.01 260.217 92.7827 259.864 92.4305 259.558C92.082 259.247 91.6123 259.092 91.0214 259.092C90.4987 259.092 90.0403 259.228 89.6464 259.501C89.2562 259.77 88.9513 260.15 88.7316 260.643C88.5157 261.131 88.4077 261.705 88.4077 262.364C88.4077 263.039 88.5138 263.626 88.7259 264.126C88.9418 264.626 89.2449 265.014 89.635 265.291C90.029 265.567 90.4911 265.705 91.0214 265.705C91.3699 265.705 91.6862 265.645 91.9702 265.523C92.2543 265.402 92.4949 265.228 92.6918 265.001C92.8888 264.773 93.029 264.501 93.1123 264.183H94.4532C94.3774 264.698 94.1899 265.162 93.8907 265.575C93.5952 265.984 93.2032 266.309 92.7146 266.552C92.2297 266.791 91.6653 266.91 91.0214 266.91ZM99.9589 266.91C99.171 266.91 98.4797 266.722 97.885 266.347C97.2941 265.972 96.832 265.448 96.4987 264.773C96.1691 264.099 96.0043 263.311 96.0043 262.41C96.0043 261.501 96.1691 260.707 96.4987 260.029C96.832 259.351 97.2941 258.825 97.885 258.45C98.4797 258.075 99.171 257.887 99.9589 257.887C100.747 257.887 101.436 258.075 102.027 258.45C102.622 258.825 103.084 259.351 103.413 260.029C103.747 260.707 103.913 261.501 103.913 262.41C103.913 263.311 103.747 264.099 103.413 264.773C103.084 265.448 102.622 265.972 102.027 266.347C101.436 266.722 100.747 266.91 99.9589 266.91ZM99.9589 265.705C100.557 265.705 101.05 265.552 101.436 265.245C101.823 264.938 102.109 264.535 102.294 264.035C102.48 263.535 102.573 262.993 102.573 262.41C102.573 261.827 102.48 261.283 102.294 260.779C102.109 260.275 101.823 259.868 101.436 259.558C101.05 259.247 100.557 259.092 99.9589 259.092C99.3604 259.092 98.868 259.247 98.4816 259.558C98.0952 259.868 97.8093 260.275 97.6237 260.779C97.4381 261.283 97.3452 261.827 97.3452 262.41C97.3452 262.993 97.4381 263.535 97.6237 264.035C97.8093 264.535 98.0952 264.938 98.4816 265.245C98.868 265.552 99.3604 265.705 99.9589 265.705ZM107.301 255.092V266.728H105.96V255.092H107.301ZM111.098 255.092V266.728H109.757V255.092H111.098ZM116.122 266.933C115.569 266.933 115.067 266.828 114.617 266.62C114.166 266.408 113.808 266.103 113.543 265.705C113.278 265.304 113.145 264.819 113.145 264.251C113.145 263.751 113.243 263.345 113.44 263.035C113.637 262.72 113.901 262.474 114.23 262.296C114.56 262.118 114.923 261.986 115.321 261.898C115.723 261.808 116.126 261.736 116.531 261.683C117.062 261.614 117.492 261.563 117.821 261.529C118.154 261.491 118.397 261.429 118.548 261.342C118.704 261.255 118.781 261.103 118.781 260.887V260.842C118.781 260.281 118.628 259.845 118.321 259.535C118.018 259.224 117.558 259.069 116.94 259.069C116.3 259.069 115.798 259.209 115.435 259.489C115.071 259.77 114.815 260.069 114.668 260.387L113.395 259.933C113.622 259.402 113.925 258.989 114.304 258.694C114.687 258.395 115.103 258.186 115.554 258.069C116.009 257.948 116.456 257.887 116.895 257.887C117.175 257.887 117.497 257.921 117.861 257.989C118.228 258.054 118.582 258.188 118.923 258.393C119.268 258.597 119.554 258.906 119.781 259.319C120.009 259.732 120.122 260.285 120.122 260.978V266.728H118.781V265.546H118.713C118.622 265.736 118.471 265.938 118.259 266.154C118.046 266.37 117.764 266.554 117.412 266.705C117.06 266.857 116.63 266.933 116.122 266.933ZM116.327 265.728C116.857 265.728 117.304 265.624 117.668 265.416C118.035 265.207 118.312 264.938 118.497 264.609C118.687 264.279 118.781 263.933 118.781 263.569V262.342C118.725 262.41 118.6 262.472 118.406 262.529C118.217 262.582 117.997 262.63 117.747 262.671C117.501 262.709 117.26 262.743 117.026 262.773C116.795 262.8 116.607 262.823 116.463 262.842C116.115 262.887 115.789 262.961 115.486 263.063C115.187 263.162 114.944 263.311 114.759 263.512C114.577 263.709 114.486 263.978 114.486 264.319C114.486 264.785 114.658 265.137 115.003 265.376C115.351 265.611 115.793 265.728 116.327 265.728ZM122.751 266.728V255.092H124.092V259.387H124.206C124.305 259.236 124.441 259.042 124.615 258.808C124.793 258.569 125.047 258.357 125.376 258.171C125.71 257.982 126.161 257.887 126.729 257.887C127.464 257.887 128.111 258.071 128.672 258.438C129.233 258.806 129.67 259.327 129.984 260.001C130.299 260.675 130.456 261.47 130.456 262.387C130.456 263.311 130.299 264.112 129.984 264.791C129.67 265.465 129.234 265.987 128.678 266.359C128.121 266.726 127.479 266.91 126.751 266.91C126.191 266.91 125.742 266.817 125.405 266.631C125.068 266.442 124.808 266.228 124.626 265.989C124.445 265.747 124.305 265.546 124.206 265.387H124.047V266.728H122.751ZM124.07 262.364C124.07 263.023 124.166 263.605 124.359 264.109C124.553 264.609 124.835 265.001 125.206 265.285C125.577 265.565 126.032 265.705 126.57 265.705C127.13 265.705 127.598 265.558 127.973 265.262C128.352 264.963 128.636 264.561 128.825 264.058C129.019 263.55 129.115 262.986 129.115 262.364C129.115 261.751 129.02 261.198 128.831 260.705C128.645 260.209 128.363 259.817 127.984 259.529C127.609 259.237 127.138 259.092 126.57 259.092C126.024 259.092 125.566 259.23 125.195 259.506C124.823 259.779 124.543 260.162 124.354 260.654C124.164 261.143 124.07 261.713 124.07 262.364ZM136.053 266.91C135.265 266.91 134.573 266.722 133.979 266.347C133.388 265.972 132.926 265.448 132.592 264.773C132.263 264.099 132.098 263.311 132.098 262.41C132.098 261.501 132.263 260.707 132.592 260.029C132.926 259.351 133.388 258.825 133.979 258.45C134.573 258.075 135.265 257.887 136.053 257.887C136.841 257.887 137.53 258.075 138.121 258.45C138.716 258.825 139.178 259.351 139.507 260.029C139.841 260.707 140.007 261.501 140.007 262.41C140.007 263.311 139.841 264.099 139.507 264.773C139.178 265.448 138.716 265.972 138.121 266.347C137.53 266.722 136.841 266.91 136.053 266.91ZM136.053 265.705C136.651 265.705 137.144 265.552 137.53 265.245C137.916 264.938 138.202 264.535 138.388 264.035C138.573 263.535 138.666 262.993 138.666 262.41C138.666 261.827 138.573 261.283 138.388 260.779C138.202 260.275 137.916 259.868 137.53 259.558C137.144 259.247 136.651 259.092 136.053 259.092C135.454 259.092 134.962 259.247 134.575 259.558C134.189 259.868 133.903 260.275 133.717 260.779C133.532 261.283 133.439 261.827 133.439 262.41C133.439 262.993 133.532 263.535 133.717 264.035C133.903 264.535 134.189 264.938 134.575 265.245C134.962 265.552 135.454 265.705 136.053 265.705ZM142.054 266.728V258.001H143.35V259.319H143.44C143.6 258.887 143.887 258.537 144.304 258.268C144.721 257.999 145.19 257.864 145.713 257.864C145.812 257.864 145.935 257.866 146.082 257.87C146.23 257.874 146.342 257.88 146.418 257.887V259.251C146.372 259.239 146.268 259.222 146.105 259.2C145.946 259.173 145.778 259.16 145.6 259.16C145.175 259.16 144.796 259.249 144.463 259.427C144.134 259.601 143.872 259.844 143.679 260.154C143.49 260.461 143.395 260.811 143.395 261.205V266.728H142.054ZM150.575 266.933C150.022 266.933 149.52 266.828 149.07 266.62C148.619 266.408 148.261 266.103 147.996 265.705C147.731 265.304 147.598 264.819 147.598 264.251C147.598 263.751 147.697 263.345 147.894 263.035C148.091 262.72 148.354 262.474 148.683 262.296C149.013 262.118 149.376 261.986 149.774 261.898C150.176 261.808 150.579 261.736 150.984 261.683C151.515 261.614 151.945 261.563 152.274 261.529C152.608 261.491 152.85 261.429 153.001 261.342C153.157 261.255 153.234 261.103 153.234 260.887V260.842C153.234 260.281 153.081 259.845 152.774 259.535C152.471 259.224 152.011 259.069 151.394 259.069C150.753 259.069 150.251 259.209 149.888 259.489C149.524 259.77 149.269 260.069 149.121 260.387L147.848 259.933C148.075 259.402 148.378 258.989 148.757 258.694C149.14 258.395 149.556 258.186 150.007 258.069C150.462 257.948 150.909 257.887 151.348 257.887C151.628 257.887 151.95 257.921 152.314 257.989C152.681 258.054 153.036 258.188 153.376 258.393C153.721 258.597 154.007 258.906 154.234 259.319C154.462 259.732 154.575 260.285 154.575 260.978V266.728H153.234V265.546H153.166C153.075 265.736 152.924 265.938 152.712 266.154C152.5 266.37 152.217 266.554 151.865 266.705C151.513 266.857 151.083 266.933 150.575 266.933ZM150.78 265.728C151.31 265.728 151.757 265.624 152.121 265.416C152.488 265.207 152.765 264.938 152.95 264.609C153.14 264.279 153.234 263.933 153.234 263.569V262.342C153.178 262.41 153.053 262.472 152.859 262.529C152.67 262.582 152.45 262.63 152.2 262.671C151.954 262.709 151.714 262.743 151.479 262.773C151.248 262.8 151.06 262.823 150.916 262.842C150.568 262.887 150.242 262.961 149.939 263.063C149.64 263.162 149.397 263.311 149.212 263.512C149.03 263.709 148.939 263.978 148.939 264.319C148.939 264.785 149.111 265.137 149.456 265.376C149.805 265.611 150.246 265.728 150.78 265.728ZM160.818 258.001V259.137H156.296V258.001H160.818ZM157.614 255.91H158.955V264.228C158.955 264.607 159.01 264.891 159.119 265.08C159.233 265.266 159.377 265.391 159.551 265.455C159.729 265.516 159.917 265.546 160.114 265.546C160.261 265.546 160.383 265.539 160.477 265.523C160.572 265.505 160.648 265.489 160.705 265.478L160.977 266.683C160.886 266.717 160.76 266.751 160.597 266.785C160.434 266.823 160.227 266.842 159.977 266.842C159.599 266.842 159.227 266.76 158.864 266.597C158.504 266.434 158.205 266.186 157.966 265.853C157.731 265.52 157.614 265.099 157.614 264.592V255.91ZM162.835 266.728V258.001H164.176V266.728H162.835ZM163.517 256.546C163.256 256.546 163.03 256.457 162.841 256.279C162.655 256.101 162.563 255.887 162.563 255.637C162.563 255.387 162.655 255.173 162.841 254.995C163.03 254.817 163.256 254.728 163.517 254.728C163.778 254.728 164.002 254.817 164.188 254.995C164.377 255.173 164.472 255.387 164.472 255.637C164.472 255.887 164.377 256.101 164.188 256.279C164.002 256.457 163.778 256.546 163.517 256.546ZM170.178 266.91C169.39 266.91 168.698 266.722 168.104 266.347C167.513 265.972 167.051 265.448 166.717 264.773C166.388 264.099 166.223 263.311 166.223 262.41C166.223 261.501 166.388 260.707 166.717 260.029C167.051 259.351 167.513 258.825 168.104 258.45C168.698 258.075 169.39 257.887 170.178 257.887C170.966 257.887 171.655 258.075 172.246 258.45C172.841 258.825 173.303 259.351 173.632 260.029C173.966 260.707 174.132 261.501 174.132 262.41C174.132 263.311 173.966 264.099 173.632 264.773C173.303 265.448 172.841 265.972 172.246 266.347C171.655 266.722 170.966 266.91 170.178 266.91ZM170.178 265.705C170.776 265.705 171.269 265.552 171.655 265.245C172.041 264.938 172.327 264.535 172.513 264.035C172.698 263.535 172.791 262.993 172.791 262.41C172.791 261.827 172.698 261.283 172.513 260.779C172.327 260.275 172.041 259.868 171.655 259.558C171.269 259.247 170.776 259.092 170.178 259.092C169.579 259.092 169.087 259.247 168.7 259.558C168.314 259.868 168.028 260.275 167.842 260.779C167.657 261.283 167.564 261.827 167.564 262.41C167.564 262.993 167.657 263.535 167.842 264.035C168.028 264.535 168.314 264.938 168.7 265.245C169.087 265.552 169.579 265.705 170.178 265.705ZM177.52 261.478V266.728H176.179V258.001H177.475V259.364H177.588C177.793 258.921 178.103 258.565 178.52 258.296C178.937 258.023 179.475 257.887 180.134 257.887C180.725 257.887 181.242 258.008 181.685 258.251C182.128 258.489 182.473 258.853 182.719 259.342C182.965 259.827 183.088 260.44 183.088 261.183V266.728H181.747V261.273C181.747 260.588 181.569 260.054 181.213 259.671C180.857 259.285 180.368 259.092 179.747 259.092C179.319 259.092 178.937 259.184 178.6 259.37C178.266 259.556 178.003 259.827 177.81 260.183C177.617 260.539 177.52 260.97 177.52 261.478Z" fill="black"/>
<path d="M19.5776 295.526C19.6769 295.526 19.753 295.556 19.8315 295.635C19.9101 295.714 19.9409 295.792 19.9409 295.893C19.9409 295.994 19.9106 296.072 19.8325 296.152L10.2144 305.763C10.1322 305.845 10.0562 305.874 9.96338 305.874C9.87074 305.874 9.79563 305.845 9.71533 305.765L5.18018 301.23C5.1032 301.152 5.07513 301.077 5.07764 300.98C5.08047 300.874 5.11521 300.792 5.19678 300.71C5.27584 300.632 5.35318 300.601 5.45459 300.601C5.53101 300.601 5.59419 300.618 5.65479 300.661L5.71533 300.711L9.60986 304.625L9.96338 304.98L10.3179 304.625L19.3101 295.639C19.3951 295.557 19.4769 295.526 19.5776 295.526Z" fill="black" stroke="black"/>
<path d="M43.3325 295.092V306.728H41.9234V295.092H43.3325ZM47.3168 301.478V306.728H45.9759V298.001H47.2714V299.364H47.385C47.5896 298.921 47.9002 298.565 48.3168 298.296C48.7335 298.023 49.2714 297.887 49.9305 297.887C50.5214 297.887 51.0384 298.008 51.4816 298.251C51.9248 298.489 52.2695 298.853 52.5157 299.342C52.7619 299.827 52.885 300.44 52.885 301.183V306.728H51.5441V301.273C51.5441 300.588 51.3661 300.054 51.01 299.671C50.654 299.285 50.1653 299.092 49.5441 299.092C49.1161 299.092 48.7335 299.184 48.3964 299.37C48.0631 299.556 47.7998 299.827 47.6066 300.183C47.4134 300.539 47.3168 300.97 47.3168 301.478ZM59.1308 298.001V299.137H54.608V298.001H59.1308ZM55.9262 295.91H57.2671V304.228C57.2671 304.607 57.322 304.891 57.4319 305.08C57.5455 305.266 57.6895 305.391 57.8637 305.455C58.0417 305.516 58.2292 305.546 58.4262 305.546C58.5739 305.546 58.6952 305.539 58.7899 305.523C58.8845 305.505 58.9603 305.489 59.0171 305.478L59.2899 306.683C59.1989 306.717 59.072 306.751 58.9092 306.785C58.7463 306.823 58.5399 306.842 58.2899 306.842C57.9111 306.842 57.5399 306.76 57.1762 306.597C56.8164 306.434 56.5171 306.186 56.2785 305.853C56.0436 305.52 55.9262 305.099 55.9262 304.592V295.91ZM64.7131 306.91C63.8722 306.91 63.1469 306.724 62.537 306.353C61.9309 305.978 61.4631 305.455 61.1336 304.785C60.8078 304.111 60.645 303.327 60.645 302.433C60.645 301.539 60.8078 300.751 61.1336 300.069C61.4631 299.383 61.9215 298.849 62.5086 298.467C63.0995 298.08 63.7889 297.887 64.5768 297.887C65.0313 297.887 65.4802 297.963 65.9234 298.114C66.3666 298.266 66.77 298.512 67.1336 298.853C67.4972 299.19 67.787 299.637 68.0029 300.194C68.2188 300.751 68.3268 301.436 68.3268 302.251V302.819H61.5995V301.66H66.9631C66.9631 301.167 66.8647 300.728 66.6677 300.342C66.4745 299.955 66.198 299.65 65.8381 299.427C65.4821 299.203 65.0616 299.092 64.5768 299.092C64.0427 299.092 63.5806 299.224 63.1904 299.489C62.8041 299.751 62.5067 300.092 62.2984 300.512C62.09 300.933 61.9859 301.383 61.9859 301.864V302.637C61.9859 303.296 62.0995 303.855 62.3268 304.313C62.5578 304.768 62.8779 305.114 63.287 305.353C63.6961 305.588 64.1715 305.705 64.7131 305.705C65.0654 305.705 65.3836 305.656 65.6677 305.558C65.9556 305.455 66.2037 305.304 66.412 305.103C66.6203 304.898 66.7813 304.645 66.895 304.342L68.1904 304.705C68.0541 305.145 67.8249 305.531 67.5029 305.864C67.1809 306.194 66.7832 306.452 66.3097 306.637C65.8363 306.819 65.3041 306.91 64.7131 306.91ZM73.8893 310.183C73.2416 310.183 72.6847 310.099 72.2188 309.933C71.7529 309.77 71.3647 309.554 71.0541 309.285C70.7472 309.02 70.5029 308.736 70.3211 308.433L71.3893 307.683C71.5105 307.842 71.6639 308.023 71.8495 308.228C72.0351 308.436 72.2889 308.616 72.6109 308.768C72.9366 308.923 73.3628 309.001 73.8893 309.001C74.5938 309.001 75.1753 308.83 75.6336 308.489C76.0919 308.148 76.3211 307.614 76.3211 306.887V305.114H76.2075C76.109 305.273 75.9688 305.47 75.787 305.705C75.609 305.936 75.3514 306.143 75.0143 306.325C74.6809 306.503 74.2302 306.592 73.662 306.592C72.9575 306.592 72.3249 306.425 71.7643 306.092C71.2075 305.758 70.7662 305.273 70.4404 304.637C70.1184 304.001 69.9575 303.228 69.9575 302.319C69.9575 301.425 70.1147 300.647 70.4291 299.984C70.7434 299.317 71.1809 298.802 71.7416 298.438C72.3022 298.071 72.9499 297.887 73.6847 297.887C74.2529 297.887 74.7037 297.982 75.037 298.171C75.3741 298.357 75.6317 298.569 75.8097 298.808C75.9916 299.042 76.1317 299.236 76.2302 299.387H76.3666V298.001H77.662V306.978C77.662 307.728 77.4916 308.338 77.1506 308.808C76.8135 309.281 76.359 309.628 75.787 309.847C75.2188 310.071 74.5863 310.183 73.8893 310.183ZM73.8438 305.387C74.3817 305.387 74.8363 305.264 75.2075 305.018C75.5787 304.772 75.8609 304.417 76.0541 303.955C76.2472 303.493 76.3438 302.94 76.3438 302.296C76.3438 301.667 76.2491 301.112 76.0597 300.631C75.8703 300.15 75.59 299.773 75.2188 299.501C74.8476 299.228 74.3893 299.092 73.8438 299.092C73.2756 299.092 72.8022 299.236 72.4234 299.523C72.0484 299.811 71.7662 300.198 71.5768 300.683C71.3912 301.167 71.2984 301.705 71.2984 302.296C71.2984 302.902 71.3931 303.438 71.5825 303.904C71.7756 304.366 72.0597 304.73 72.4347 304.995C72.8135 305.256 73.2832 305.387 73.8438 305.387ZM80.1166 306.728V298.001H81.412V299.319H81.5029C81.662 298.887 81.9499 298.537 82.3666 298.268C82.7832 297.999 83.2529 297.864 83.7756 297.864C83.8741 297.864 83.9972 297.866 84.145 297.87C84.2927 297.874 84.4044 297.88 84.4802 297.887V299.251C84.4347 299.239 84.3306 299.222 84.1677 299.2C84.0086 299.173 83.84 299.16 83.662 299.16C83.2378 299.16 82.859 299.249 82.5256 299.427C82.1961 299.601 81.9347 299.844 81.7416 300.154C81.5522 300.461 81.4575 300.811 81.4575 301.205V306.728H80.1166ZM88.6379 306.933C88.0848 306.933 87.5829 306.828 87.1322 306.62C86.6814 306.408 86.3235 306.103 86.0583 305.705C85.7932 305.304 85.6606 304.819 85.6606 304.251C85.6606 303.751 85.7591 303.345 85.956 303.035C86.153 302.72 86.4163 302.474 86.7458 302.296C87.0754 302.118 87.439 301.986 87.8367 301.898C88.2382 301.808 88.6416 301.736 89.047 301.683C89.5773 301.614 90.0072 301.563 90.3367 301.529C90.6701 301.491 90.9125 301.429 91.064 301.342C91.2193 301.255 91.297 301.103 91.297 300.887V300.842C91.297 300.281 91.1435 299.845 90.8367 299.535C90.5337 299.224 90.0735 299.069 89.456 299.069C88.8159 299.069 88.314 299.209 87.9504 299.489C87.5867 299.77 87.331 300.069 87.1833 300.387L85.9106 299.933C86.1379 299.402 86.4409 298.989 86.8197 298.694C87.2023 298.395 87.6189 298.186 88.0697 298.069C88.5242 297.948 88.9712 297.887 89.4106 297.887C89.6909 297.887 90.0129 297.921 90.3765 297.989C90.7439 298.054 91.0981 298.188 91.439 298.393C91.7837 298.597 92.0697 298.906 92.297 299.319C92.5242 299.732 92.6379 300.285 92.6379 300.978V306.728H91.297V305.546H91.2288C91.1379 305.736 90.9863 305.938 90.7742 306.154C90.5621 306.37 90.2799 306.554 89.9276 306.705C89.5754 306.857 89.1454 306.933 88.6379 306.933ZM88.8424 305.728C89.3727 305.728 89.8197 305.624 90.1833 305.416C90.5507 305.207 90.8273 304.938 91.0129 304.609C91.2023 304.279 91.297 303.933 91.297 303.569V302.342C91.2401 302.41 91.1151 302.472 90.922 302.529C90.7326 302.582 90.5129 302.63 90.2629 302.671C90.0166 302.709 89.7761 302.743 89.5413 302.773C89.3102 302.8 89.1227 302.823 88.9788 302.842C88.6303 302.887 88.3045 302.961 88.0015 303.063C87.7023 303.162 87.4598 303.311 87.2742 303.512C87.0924 303.709 87.0015 303.978 87.0015 304.319C87.0015 304.785 87.1738 305.137 87.5185 305.376C87.867 305.611 88.3083 305.728 88.8424 305.728ZM98.8808 298.001V299.137H94.358V298.001H98.8808ZM95.6762 295.91H97.0171V304.228C97.0171 304.607 97.072 304.891 97.1819 305.08C97.2955 305.266 97.4395 305.391 97.6137 305.455C97.7917 305.516 97.9792 305.546 98.1762 305.546C98.3239 305.546 98.4452 305.539 98.5399 305.523C98.6345 305.505 98.7103 305.489 98.7671 305.478L99.0399 306.683C98.9489 306.717 98.822 306.751 98.6592 306.785C98.4963 306.823 98.2899 306.842 98.0399 306.842C97.6611 306.842 97.2899 306.76 96.9262 306.597C96.5664 306.434 96.2671 306.186 96.0285 305.853C95.7936 305.52 95.6762 305.099 95.6762 304.592V295.91ZM100.898 306.728V298.001H102.239V306.728H100.898ZM101.58 296.546C101.318 296.546 101.093 296.457 100.903 296.279C100.718 296.101 100.625 295.887 100.625 295.637C100.625 295.387 100.718 295.173 100.903 294.995C101.093 294.817 101.318 294.728 101.58 294.728C101.841 294.728 102.064 294.817 102.25 294.995C102.439 295.173 102.534 295.387 102.534 295.637C102.534 295.887 102.439 296.101 102.25 296.279C102.064 296.457 101.841 296.546 101.58 296.546ZM108.24 306.91C107.452 306.91 106.761 306.722 106.166 306.347C105.575 305.972 105.113 305.448 104.78 304.773C104.45 304.099 104.286 303.311 104.286 302.41C104.286 301.501 104.45 300.707 104.78 300.029C105.113 299.351 105.575 298.825 106.166 298.45C106.761 298.075 107.452 297.887 108.24 297.887C109.028 297.887 109.717 298.075 110.308 298.45C110.903 298.825 111.365 299.351 111.695 300.029C112.028 300.707 112.195 301.501 112.195 302.41C112.195 303.311 112.028 304.099 111.695 304.773C111.365 305.448 110.903 305.972 110.308 306.347C109.717 306.722 109.028 306.91 108.24 306.91ZM108.24 305.705C108.839 305.705 109.331 305.552 109.717 305.245C110.104 304.938 110.39 304.535 110.575 304.035C110.761 303.535 110.854 302.993 110.854 302.41C110.854 301.827 110.761 301.283 110.575 300.779C110.39 300.275 110.104 299.868 109.717 299.558C109.331 299.247 108.839 299.092 108.24 299.092C107.642 299.092 107.149 299.247 106.763 299.558C106.376 299.868 106.091 300.275 105.905 300.779C105.719 301.283 105.626 301.827 105.626 302.41C105.626 302.993 105.719 303.535 105.905 304.035C106.091 304.535 106.376 304.938 106.763 305.245C107.149 305.552 107.642 305.705 108.24 305.705ZM115.582 301.478V306.728H114.242V298.001H115.537V299.364H115.651C115.855 298.921 116.166 298.565 116.582 298.296C116.999 298.023 117.537 297.887 118.196 297.887C118.787 297.887 119.304 298.008 119.747 298.251C120.19 298.489 120.535 298.853 120.781 299.342C121.028 299.827 121.151 300.44 121.151 301.183V306.728H119.81V301.273C119.81 300.588 119.632 300.054 119.276 299.671C118.92 299.285 118.431 299.092 117.81 299.092C117.382 299.092 116.999 299.184 116.662 299.37C116.329 299.556 116.065 299.827 115.872 300.183C115.679 300.539 115.582 300.97 115.582 301.478ZM134.283 299.955L133.078 300.296C133.002 300.095 132.891 299.9 132.743 299.711C132.599 299.518 132.402 299.359 132.152 299.234C131.902 299.109 131.582 299.046 131.192 299.046C130.658 299.046 130.213 299.169 129.857 299.416C129.504 299.658 129.328 299.967 129.328 300.342C129.328 300.675 129.449 300.938 129.692 301.131C129.934 301.325 130.313 301.486 130.828 301.614L132.124 301.933C132.904 302.122 133.485 302.412 133.868 302.802C134.251 303.188 134.442 303.686 134.442 304.296C134.442 304.796 134.298 305.243 134.01 305.637C133.726 306.031 133.328 306.342 132.817 306.569C132.305 306.796 131.711 306.91 131.033 306.91C130.143 306.91 129.406 306.717 128.823 306.33C128.239 305.944 127.87 305.38 127.715 304.637L128.987 304.319C129.109 304.789 129.338 305.141 129.675 305.376C130.016 305.611 130.461 305.728 131.01 305.728C131.635 305.728 132.131 305.595 132.499 305.33C132.87 305.061 133.055 304.739 133.055 304.364C133.055 304.061 132.949 303.808 132.737 303.603C132.525 303.395 132.199 303.239 131.76 303.137L130.305 302.796C129.506 302.607 128.919 302.313 128.544 301.916C128.173 301.514 127.987 301.012 127.987 300.41C127.987 299.917 128.126 299.482 128.402 299.103C128.682 298.724 129.063 298.427 129.544 298.211C130.029 297.995 130.578 297.887 131.192 297.887C132.055 297.887 132.734 298.077 133.226 298.455C133.722 298.834 134.074 299.334 134.283 299.955ZM141.96 303.16V298.001H143.301V306.728H141.96V305.251H141.869C141.665 305.694 141.347 306.071 140.915 306.381C140.483 306.688 139.938 306.842 139.278 306.842C138.733 306.842 138.248 306.722 137.824 306.484C137.4 306.241 137.066 305.878 136.824 305.393C136.582 304.904 136.46 304.289 136.46 303.546V298.001H137.801V303.455C137.801 304.092 137.979 304.599 138.335 304.978C138.695 305.357 139.153 305.546 139.71 305.546C140.044 305.546 140.383 305.461 140.727 305.291C141.076 305.12 141.368 304.859 141.602 304.506C141.841 304.154 141.96 303.705 141.96 303.16ZM145.757 310.001V298.001H147.053V299.387H147.212C147.31 299.236 147.447 299.042 147.621 298.808C147.799 298.569 148.053 298.357 148.382 298.171C148.716 297.982 149.166 297.887 149.734 297.887C150.469 297.887 151.117 298.071 151.678 298.438C152.238 298.806 152.676 299.327 152.99 300.001C153.305 300.675 153.462 301.47 153.462 302.387C153.462 303.311 153.305 304.112 152.99 304.791C152.676 305.465 152.24 305.987 151.683 306.359C151.126 306.726 150.484 306.91 149.757 306.91C149.197 306.91 148.748 306.817 148.411 306.631C148.073 306.442 147.814 306.228 147.632 305.989C147.45 305.747 147.31 305.546 147.212 305.387H147.098V310.001H145.757ZM147.075 302.364C147.075 303.023 147.172 303.605 147.365 304.109C147.558 304.609 147.841 305.001 148.212 305.285C148.583 305.565 149.037 305.705 149.575 305.705C150.136 305.705 150.604 305.558 150.979 305.262C151.358 304.963 151.642 304.561 151.831 304.058C152.024 303.55 152.121 302.986 152.121 302.364C152.121 301.751 152.026 301.198 151.837 300.705C151.651 300.209 151.369 299.817 150.99 299.529C150.615 299.237 150.144 299.092 149.575 299.092C149.03 299.092 148.572 299.23 148.2 299.506C147.829 299.779 147.549 300.162 147.359 300.654C147.17 301.143 147.075 301.713 147.075 302.364ZM155.507 310.001V298.001H156.803V299.387H156.962C157.06 299.236 157.197 299.042 157.371 298.808C157.549 298.569 157.803 298.357 158.132 298.171C158.466 297.982 158.916 297.887 159.484 297.887C160.219 297.887 160.867 298.071 161.428 298.438C161.988 298.806 162.426 299.327 162.74 300.001C163.055 300.675 163.212 301.47 163.212 302.387C163.212 303.311 163.055 304.112 162.74 304.791C162.426 305.465 161.99 305.987 161.433 306.359C160.876 306.726 160.234 306.91 159.507 306.91C158.947 306.91 158.498 306.817 158.161 306.631C157.823 306.442 157.564 306.228 157.382 305.989C157.2 305.747 157.06 305.546 156.962 305.387H156.848V310.001H155.507ZM156.825 302.364C156.825 303.023 156.922 303.605 157.115 304.109C157.308 304.609 157.591 305.001 157.962 305.285C158.333 305.565 158.787 305.705 159.325 305.705C159.886 305.705 160.354 305.558 160.729 305.262C161.108 304.963 161.392 304.561 161.581 304.058C161.774 303.55 161.871 302.986 161.871 302.364C161.871 301.751 161.776 301.198 161.587 300.705C161.401 300.209 161.119 299.817 160.74 299.529C160.365 299.237 159.894 299.092 159.325 299.092C158.78 299.092 158.322 299.23 157.95 299.506C157.579 299.779 157.299 300.162 157.109 300.654C156.92 301.143 156.825 301.713 156.825 302.364ZM168.803 306.91C168.015 306.91 167.323 306.722 166.729 306.347C166.138 305.972 165.676 305.448 165.342 304.773C165.013 304.099 164.848 303.311 164.848 302.41C164.848 301.501 165.013 300.707 165.342 300.029C165.676 299.351 166.138 298.825 166.729 298.45C167.323 298.075 168.015 297.887 168.803 297.887C169.591 297.887 170.28 298.075 170.871 298.45C171.466 298.825 171.928 299.351 172.257 300.029C172.591 300.707 172.757 301.501 172.757 302.41C172.757 303.311 172.591 304.099 172.257 304.773C171.928 305.448 171.466 305.972 170.871 306.347C170.28 306.722 169.591 306.91 168.803 306.91ZM168.803 305.705C169.401 305.705 169.894 305.552 170.28 305.245C170.666 304.938 170.952 304.535 171.138 304.035C171.323 303.535 171.416 302.993 171.416 302.41C171.416 301.827 171.323 301.283 171.138 300.779C170.952 300.275 170.666 299.868 170.28 299.558C169.894 299.247 169.401 299.092 168.803 299.092C168.204 299.092 167.712 299.247 167.325 299.558C166.939 299.868 166.653 300.275 166.467 300.779C166.282 301.283 166.189 301.827 166.189 302.41C166.189 302.993 166.282 303.535 166.467 304.035C166.653 304.535 166.939 304.938 167.325 305.245C167.712 305.552 168.204 305.705 168.803 305.705ZM174.804 306.728V298.001H176.1V299.319H176.19C176.35 298.887 176.637 298.537 177.054 298.268C177.471 297.999 177.94 297.864 178.463 297.864C178.562 297.864 178.685 297.866 178.832 297.87C178.98 297.874 179.092 297.88 179.168 297.887V299.251C179.122 299.239 179.018 299.222 178.855 299.2C178.696 299.173 178.528 299.16 178.35 299.16C177.925 299.16 177.546 299.249 177.213 299.427C176.884 299.601 176.622 299.844 176.429 300.154C176.24 300.461 176.145 300.811 176.145 301.205V306.728H174.804ZM185.1 298.001V299.137H180.577V298.001H185.1ZM181.895 295.91H183.236V304.228C183.236 304.607 183.291 304.891 183.401 305.08C183.514 305.266 183.658 305.391 183.832 305.455C184.01 305.516 184.198 305.546 184.395 305.546C184.543 305.546 184.664 305.539 184.759 305.523C184.853 305.505 184.929 305.489 184.986 305.478L185.259 306.683C185.168 306.717 185.041 306.751 184.878 306.785C184.715 306.823 184.509 306.842 184.259 306.842C183.88 306.842 183.509 306.76 183.145 306.597C182.785 306.434 182.486 306.186 182.247 305.853C182.012 305.52 181.895 305.099 181.895 304.592V295.91Z" fill="black"/>
<path d="M19.5776 335.526C19.6769 335.526 19.753 335.556 19.8315 335.635C19.9101 335.714 19.9409 335.792 19.9409 335.893C19.9409 335.994 19.9106 336.072 19.8325 336.152L10.2144 345.763C10.1322 345.845 10.0562 345.874 9.96338 345.874C9.87074 345.874 9.79563 345.845 9.71533 345.765L5.18018 341.23C5.1032 341.152 5.07513 341.077 5.07764 340.98C5.08047 340.874 5.11521 340.792 5.19678 340.71C5.27584 340.632 5.35318 340.601 5.45459 340.601C5.53101 340.601 5.59419 340.618 5.65479 340.661L5.71533 340.711L9.60986 344.625L9.96338 344.98L10.3179 344.625L19.3101 335.639C19.3951 335.557 19.4769 335.526 19.5776 335.526Z" fill="black" stroke="black"/>
<path d="M41.9234 346.728V335.092H45.8552C46.7681 335.092 47.5143 335.256 48.0938 335.586C48.6772 335.912 49.109 336.353 49.3893 336.91C49.6696 337.467 49.8097 338.088 49.8097 338.773C49.8097 339.459 49.6696 340.082 49.3893 340.643C49.1128 341.203 48.6847 341.65 48.1052 341.984C47.5256 342.313 46.7832 342.478 45.8779 342.478H43.0597V341.228H45.8325C46.4575 341.228 46.9594 341.12 47.3381 340.904C47.7169 340.688 47.9916 340.397 48.162 340.029C48.3363 339.658 48.4234 339.239 48.4234 338.773C48.4234 338.308 48.3363 337.891 48.162 337.523C47.9916 337.156 47.715 336.868 47.3325 336.66C46.9499 336.448 46.4423 336.342 45.8097 336.342H43.3325V346.728H41.9234ZM51.8978 346.728V338.001H53.1933V339.319H53.2842C53.4433 338.887 53.7311 338.537 54.1478 338.268C54.5645 337.999 55.0342 337.864 55.5569 337.864C55.6554 337.864 55.7785 337.866 55.9262 337.87C56.0739 337.874 56.1857 337.88 56.2614 337.887V339.251C56.216 339.239 56.1118 339.222 55.9489 339.2C55.7899 339.173 55.6213 339.16 55.4433 339.16C55.019 339.16 54.6402 339.249 54.3069 339.427C53.9774 339.601 53.716 339.844 53.5228 340.154C53.3334 340.461 53.2387 340.811 53.2387 341.205V346.728H51.8978ZM57.8509 346.728V338.001H59.1918V346.728H57.8509ZM58.5327 336.546C58.2714 336.546 58.046 336.457 57.8566 336.279C57.671 336.101 57.5782 335.887 57.5782 335.637C57.5782 335.387 57.671 335.173 57.8566 334.995C58.046 334.817 58.2714 334.728 58.5327 334.728C58.7941 334.728 59.0176 334.817 59.2032 334.995C59.3926 335.173 59.4873 335.387 59.4873 335.637C59.4873 335.887 59.3926 336.101 59.2032 336.279C59.0176 336.457 58.7941 336.546 58.5327 336.546ZM65.1933 346.91C64.4054 346.91 63.7141 346.722 63.1194 346.347C62.5285 345.972 62.0664 345.448 61.733 344.773C61.4035 344.099 61.2387 343.311 61.2387 342.41C61.2387 341.501 61.4035 340.707 61.733 340.029C62.0664 339.351 62.5285 338.825 63.1194 338.45C63.7141 338.075 64.4054 337.887 65.1933 337.887C65.9811 337.887 66.6705 338.075 67.2614 338.45C67.8561 338.825 68.3183 339.351 68.6478 340.029C68.9811 340.707 69.1478 341.501 69.1478 342.41C69.1478 343.311 68.9811 344.099 68.6478 344.773C68.3183 345.448 67.8561 345.972 67.2614 346.347C66.6705 346.722 65.9811 346.91 65.1933 346.91ZM65.1933 345.705C65.7917 345.705 66.2842 345.552 66.6705 345.245C67.0569 344.938 67.3429 344.535 67.5285 344.035C67.7141 343.535 67.8069 342.993 67.8069 342.41C67.8069 341.827 67.7141 341.283 67.5285 340.779C67.3429 340.275 67.0569 339.868 66.6705 339.558C66.2842 339.247 65.7917 339.092 65.1933 339.092C64.5948 339.092 64.1024 339.247 63.716 339.558C63.3296 339.868 63.0436 340.275 62.858 340.779C62.6724 341.283 62.5796 341.827 62.5796 342.41C62.5796 342.993 62.6724 343.535 62.858 344.035C63.0436 344.535 63.3296 344.938 63.716 345.245C64.1024 345.552 64.5948 345.705 65.1933 345.705ZM71.1947 346.728V338.001H72.4901V339.319H72.581C72.7401 338.887 73.028 338.537 73.4447 338.268C73.8613 337.999 74.331 337.864 74.8538 337.864C74.9523 337.864 75.0754 337.866 75.2231 337.87C75.3708 337.874 75.4826 337.88 75.5583 337.887V339.251C75.5129 339.239 75.4087 339.222 75.2458 339.2C75.0867 339.173 74.9182 339.16 74.7401 339.16C74.3159 339.16 73.9371 339.249 73.6038 339.427C73.2742 339.601 73.0129 339.844 72.8197 340.154C72.6303 340.461 72.5356 340.811 72.5356 341.205V346.728H71.1947ZM77.1478 346.728V338.001H78.4887V346.728H77.1478ZM77.8296 336.546C77.5683 336.546 77.3429 336.457 77.1535 336.279C76.9679 336.101 76.8751 335.887 76.8751 335.637C76.8751 335.387 76.9679 335.173 77.1535 334.995C77.3429 334.817 77.5683 334.728 77.8296 334.728C78.091 334.728 78.3145 334.817 78.5001 334.995C78.6895 335.173 78.7842 335.387 78.7842 335.637C78.7842 335.887 78.6895 336.101 78.5001 336.279C78.3145 336.457 78.091 336.546 77.8296 336.546ZM84.7401 338.001V339.137H80.2174V338.001H84.7401ZM81.5356 335.91H82.8765V344.228C82.8765 344.607 82.9314 344.891 83.0413 345.08C83.1549 345.266 83.2988 345.391 83.4731 345.455C83.6511 345.516 83.8386 345.546 84.0356 345.546C84.1833 345.546 84.3045 345.539 84.3992 345.523C84.4939 345.505 84.5697 345.489 84.6265 345.478L84.8992 346.683C84.8083 346.717 84.6814 346.751 84.5185 346.785C84.3557 346.823 84.1492 346.842 83.8992 346.842C83.5204 346.842 83.1492 346.76 82.7856 346.597C82.4257 346.434 82.1265 346.186 81.8879 345.853C81.653 345.52 81.5356 345.099 81.5356 344.592V335.91ZM87.6208 350.001C87.3935 350.001 87.1909 349.982 87.0129 349.944C86.8348 349.91 86.7117 349.876 86.6435 349.842L86.9845 348.66C87.3102 348.743 87.5981 348.773 87.8481 348.751C88.0981 348.728 88.3197 348.616 88.5129 348.416C88.7098 348.219 88.8898 347.898 89.0526 347.455L89.3026 346.773L86.0754 338.001H87.5299L89.939 344.955H90.0299L92.439 338.001H93.8935L90.189 348.001C90.0223 348.452 89.8159 348.825 89.5697 349.12C89.3235 349.419 89.0375 349.641 88.7117 349.785C88.3898 349.929 88.0261 350.001 87.6208 350.001ZM106.345 339.955L105.141 340.296C105.065 340.095 104.953 339.9 104.805 339.711C104.662 339.518 104.465 339.359 104.215 339.234C103.965 339.109 103.644 339.046 103.254 339.046C102.72 339.046 102.275 339.169 101.919 339.416C101.567 339.658 101.391 339.967 101.391 340.342C101.391 340.675 101.512 340.938 101.754 341.131C101.997 341.325 102.376 341.486 102.891 341.614L104.186 341.933C104.966 342.122 105.548 342.412 105.93 342.802C106.313 343.188 106.504 343.686 106.504 344.296C106.504 344.796 106.36 345.243 106.073 345.637C105.788 346.031 105.391 346.342 104.879 346.569C104.368 346.796 103.773 346.91 103.095 346.91C102.205 346.91 101.468 346.717 100.885 346.33C100.302 345.944 99.9324 345.38 99.7771 344.637L101.05 344.319C101.171 344.789 101.4 345.141 101.737 345.376C102.078 345.611 102.523 345.728 103.073 345.728C103.698 345.728 104.194 345.595 104.561 345.33C104.932 345.061 105.118 344.739 105.118 344.364C105.118 344.061 105.012 343.808 104.8 343.603C104.588 343.395 104.262 343.239 103.823 343.137L102.368 342.796C101.569 342.607 100.982 342.313 100.607 341.916C100.235 341.514 100.05 341.012 100.05 340.41C100.05 339.917 100.188 339.482 100.465 339.103C100.745 338.724 101.126 338.427 101.607 338.211C102.091 337.995 102.641 337.887 103.254 337.887C104.118 337.887 104.796 338.077 105.288 338.455C105.785 338.834 106.137 339.334 106.345 339.955ZM114.023 343.16V338.001H115.364V346.728H114.023V345.251H113.932C113.727 345.694 113.409 346.071 112.977 346.381C112.546 346.688 112 346.842 111.341 346.842C110.796 346.842 110.311 346.722 109.886 346.484C109.462 346.241 109.129 345.878 108.886 345.393C108.644 344.904 108.523 344.289 108.523 343.546V338.001H109.864V343.455C109.864 344.092 110.042 344.599 110.398 344.978C110.758 345.357 111.216 345.546 111.773 345.546C112.106 345.546 112.445 345.461 112.79 345.291C113.138 345.12 113.43 344.859 113.665 344.506C113.903 344.154 114.023 343.705 114.023 343.16ZM117.82 350.001V338.001H119.115V339.387H119.274C119.373 339.236 119.509 339.042 119.683 338.808C119.861 338.569 120.115 338.357 120.445 338.171C120.778 337.982 121.229 337.887 121.797 337.887C122.532 337.887 123.18 338.071 123.74 338.438C124.301 338.806 124.738 339.327 125.053 340.001C125.367 340.675 125.524 341.47 125.524 342.387C125.524 343.311 125.367 344.112 125.053 344.791C124.738 345.465 124.303 345.987 123.746 346.359C123.189 346.726 122.547 346.91 121.82 346.91C121.259 346.91 120.81 346.817 120.473 346.631C120.136 346.442 119.876 346.228 119.695 345.989C119.513 345.747 119.373 345.546 119.274 345.387H119.161V350.001H117.82ZM119.138 342.364C119.138 343.023 119.234 343.605 119.428 344.109C119.621 344.609 119.903 345.001 120.274 345.285C120.645 345.565 121.1 345.705 121.638 345.705C122.198 345.705 122.666 345.558 123.041 345.262C123.42 344.963 123.704 344.561 123.894 344.058C124.087 343.55 124.183 342.986 124.183 342.364C124.183 341.751 124.089 341.198 123.899 340.705C123.714 340.209 123.431 339.817 123.053 339.529C122.678 339.237 122.206 339.092 121.638 339.092C121.092 339.092 120.634 339.23 120.263 339.506C119.892 339.779 119.611 340.162 119.422 340.654C119.233 341.143 119.138 341.713 119.138 342.364ZM127.57 350.001V338.001H128.865V339.387H129.024C129.123 339.236 129.259 339.042 129.433 338.808C129.611 338.569 129.865 338.357 130.195 338.171C130.528 337.982 130.979 337.887 131.547 337.887C132.282 337.887 132.93 338.071 133.49 338.438C134.051 338.806 134.488 339.327 134.803 340.001C135.117 340.675 135.274 341.47 135.274 342.387C135.274 343.311 135.117 344.112 134.803 344.791C134.488 345.465 134.053 345.987 133.496 346.359C132.939 346.726 132.297 346.91 131.57 346.91C131.009 346.91 130.56 346.817 130.223 346.631C129.886 346.442 129.626 346.228 129.445 345.989C129.263 345.747 129.123 345.546 129.024 345.387H128.911V350.001H127.57ZM128.888 342.364C128.888 343.023 128.984 343.605 129.178 344.109C129.371 344.609 129.653 345.001 130.024 345.285C130.395 345.565 130.85 345.705 131.388 345.705C131.948 345.705 132.416 345.558 132.791 345.262C133.17 344.963 133.454 344.561 133.644 344.058C133.837 343.55 133.933 342.986 133.933 342.364C133.933 341.751 133.839 341.198 133.649 340.705C133.464 340.209 133.181 339.817 132.803 339.529C132.428 339.237 131.956 339.092 131.388 339.092C130.842 339.092 130.384 339.23 130.013 339.506C129.642 339.779 129.361 340.162 129.172 340.654C128.983 341.143 128.888 341.713 128.888 342.364ZM140.865 346.91C140.077 346.91 139.386 346.722 138.791 346.347C138.2 345.972 137.738 345.448 137.405 344.773C137.075 344.099 136.911 343.311 136.911 342.41C136.911 341.501 137.075 340.707 137.405 340.029C137.738 339.351 138.2 338.825 138.791 338.45C139.386 338.075 140.077 337.887 140.865 337.887C141.653 337.887 142.342 338.075 142.933 338.45C143.528 338.825 143.99 339.351 144.32 340.029C144.653 340.707 144.82 341.501 144.82 342.41C144.82 343.311 144.653 344.099 144.32 344.773C143.99 345.448 143.528 345.972 142.933 346.347C142.342 346.722 141.653 346.91 140.865 346.91ZM140.865 345.705C141.464 345.705 141.956 345.552 142.342 345.245C142.729 344.938 143.015 344.535 143.2 344.035C143.386 343.535 143.479 342.993 143.479 342.41C143.479 341.827 143.386 341.283 143.2 340.779C143.015 340.275 142.729 339.868 142.342 339.558C141.956 339.247 141.464 339.092 140.865 339.092C140.267 339.092 139.774 339.247 139.388 339.558C139.001 339.868 138.716 340.275 138.53 340.779C138.344 341.283 138.251 341.827 138.251 342.41C138.251 342.993 138.344 343.535 138.53 344.035C138.716 344.535 139.001 344.938 139.388 345.245C139.774 345.552 140.267 345.705 140.865 345.705ZM146.867 346.728V338.001H148.162V339.319H148.253C148.412 338.887 148.7 338.537 149.117 338.268C149.533 337.999 150.003 337.864 150.526 337.864C150.624 337.864 150.747 337.866 150.895 337.87C151.043 337.874 151.154 337.88 151.23 337.887V339.251C151.185 339.239 151.081 339.222 150.918 339.2C150.759 339.173 150.59 339.16 150.412 339.16C149.988 339.16 149.609 339.249 149.276 339.427C148.946 339.601 148.685 339.844 148.492 340.154C148.302 340.461 148.207 340.811 148.207 341.205V346.728H146.867ZM157.162 338.001V339.137H152.639V338.001H157.162ZM153.957 335.91H155.298V344.228C155.298 344.607 155.353 344.891 155.463 345.08C155.577 345.266 155.721 345.391 155.895 345.455C156.073 345.516 156.26 345.546 156.457 345.546C156.605 345.546 156.726 345.539 156.821 345.523C156.916 345.505 156.992 345.489 157.048 345.478L157.321 346.683C157.23 346.717 157.103 346.751 156.94 346.785C156.778 346.823 156.571 346.842 156.321 346.842C155.942 346.842 155.571 346.76 155.207 346.597C154.848 346.434 154.548 346.186 154.31 345.853C154.075 345.52 153.957 345.099 153.957 344.592V335.91Z" fill="black"/>
</svg>
